<svg width="272" height="129" viewBox="0 0 272 129" fill="none" xmlns="http://www.w3.org/2000/svg">
<path d="M92.6183 74.673C98.3157 74.4891 105.114 75.576 110.804 76.2507C112.366 76.4358 114.147 76.3471 115.719 76.496C117.054 76.6224 118.421 76.9131 119.763 77.0846C120.471 77.1753 121.618 77.1505 122.213 77.2853L122.788 77.2982C129.093 77.6393 135.192 78.2821 141.506 77.7903C143.248 77.6547 145.326 77.9351 147.097 77.8289C150.129 77.8911 151.3 78.6552 154.525 78.1726C153.862 78.781 152.338 78.7791 151.587 80.1708C151.326 79.8848 150.894 79.857 150.52 79.7998C149.501 79.7115 148.802 79.6816 147.781 79.6906C146.74 79.6781 143.783 79.5393 143.081 80.0971C141.644 79.9637 140.994 80.2716 139.752 80.4102C139.164 80.476 138.128 79.1875 136.97 79.6618C136.552 80.0885 136.627 80.1309 136.603 80.8072C136.566 81.2354 136.473 81.6187 136.715 81.9556L137.108 82.1087C136.973 82.1915 131.218 82.0937 130.394 82.1051C131.487 82.5425 134.188 81.8202 135.449 82.2964C135.782 82.4223 135.966 82.1002 136.514 82.4147C136.653 82.8386 136.63 82.6613 136.506 83.1651C135.333 84.2283 126.784 83.2109 125.535 83.7619C119.467 83.681 113.403 83.3747 107.358 82.8435C105.588 82.7016 103.715 82.3431 101.968 82.2617C93.7289 81.8778 85.6501 80.4621 77.3766 80.8788C75.9021 80.953 74.4283 81.2113 72.9492 81.2922L61.5271 81.8632C60.1923 81.939 58.7078 81.8337 57.3606 81.8071L49.6313 81.6594C47.1437 81.611 44.4612 81.748 41.9922 81.4425C41.0095 81.3209 40.1832 80.6875 39.4419 80.0712C36.8707 77.9338 39.2911 75.1071 42.0215 75.0616C44.2881 75.0756 45.6354 75.0935 47.866 75.3503C48.6114 75.373 49.5129 75.5521 50.4017 75.5768C51.9071 75.6185 53.4591 75.4132 54.9046 75.4588C58.1606 75.5614 61.5307 75.7593 64.7814 75.7282C67.1719 75.7053 69.6824 75.4508 72.116 75.4002C77.0306 75.2978 81.8981 75.2622 86.812 75.397C88.7452 75.4502 90.6101 74.5275 92.6183 74.673ZM123.148 79.9593C123.115 80.2309 122.739 80.7971 122.579 81.0481C122.61 81.5547 122.533 81.4137 122.815 81.7851C124.406 82.1021 125.036 79.6899 123.481 79.2463L123.148 79.9593Z" fill="#5E5B64"/>
<path d="M92.6182 74.673C98.3155 74.4891 105.113 75.576 110.804 76.2507C112.366 76.4358 114.147 76.3471 115.719 76.496C117.053 76.6224 118.421 76.9131 119.763 77.0846C120.471 77.1753 121.618 77.1505 122.213 77.2853L122.788 77.2982C129.093 77.6393 135.191 78.2821 141.505 77.7903C143.248 77.6547 145.326 77.9351 147.097 77.8289C150.128 77.8911 151.299 78.6552 154.525 78.1726C153.862 78.781 152.338 78.7791 151.587 80.1708C151.326 79.8848 150.894 79.857 150.52 79.7998C149.501 79.7115 148.802 79.6816 147.781 79.6906C146.74 79.6781 143.783 79.5393 143.081 80.0971C141.643 79.9637 140.994 80.2716 139.752 80.4102C139.163 80.476 138.128 79.1875 136.97 79.6618C136.552 80.0885 136.626 80.1309 136.602 80.8072C136.565 81.2354 136.473 81.6187 136.715 81.9556L137.108 82.1087C136.972 82.1915 131.218 82.0937 130.393 82.1051C129.208 82.0666 128.022 82.0603 126.837 82.0864C123.252 82.8936 116.762 81.8852 113.013 81.5988C110.689 81.4212 107.675 81.7321 105.282 81.209C103.895 80.9058 102.922 80.0837 101.259 79.8577C99.3155 79.5934 94.7507 79.7231 93.1106 79.0736C93.7641 78.9183 100.311 79.882 101.085 79.4733C100.764 77.0765 96.4823 77.1371 94.7547 76.4272C92.9457 75.6838 94.5103 75.2235 92.6182 74.673ZM123.148 79.9593C123.115 80.2309 122.739 80.7971 122.579 81.0481C122.61 81.5547 122.533 81.4137 122.815 81.7851C124.406 82.1021 125.036 79.6899 123.48 79.2463L123.148 79.9593Z" fill="#706C75"/>
<path d="M123.48 79.248C125.036 79.6917 124.406 82.1038 122.815 81.7868C122.533 81.4155 122.61 81.5564 122.579 81.0498C122.739 80.7988 123.115 80.2326 123.148 79.9611L123.48 79.248Z" fill="#A5A1AA" fill-opacity="0.988235"/>
<path d="M123.48 79.2462C123.774 78.8889 123.848 78.7478 124.291 78.6133C125.318 78.982 125.26 80.3218 126.21 80.3384C127.812 80.0987 131.877 80.2772 133.79 80.2021C134.214 80.1855 136.076 80.8039 136.603 80.8071C136.565 81.2353 136.473 81.6186 136.715 81.9555L137.108 82.1086C136.973 82.1913 131.218 82.0936 130.394 82.105C129.208 82.0664 128.022 82.0602 126.837 82.0863L126.578 81.9982C124.38 82.1822 122.198 81.7797 119.975 81.9331C118.891 82.0078 117.432 81.8209 116.33 81.707C116.491 80.5308 116.034 80.198 116.448 78.8316C118.716 79.9977 120.635 79.9348 123.148 79.9592C123.115 80.2307 122.739 80.797 122.579 81.048C122.61 81.5546 122.533 81.4136 122.815 81.785C124.406 82.102 125.036 79.6898 123.48 79.2462Z" fill="#908B93"/>
<path d="M126.21 80.3397C127.812 80.1 131.877 80.2785 133.79 80.2035C134.214 80.1869 136.076 80.8052 136.603 80.8084C136.565 81.2366 136.473 81.6199 136.715 81.9568L137.108 82.1099C136.973 82.1927 131.218 82.095 130.394 82.1064C129.208 82.0678 128.022 82.0616 126.837 82.0877L126.578 81.9995C128.366 81.6177 128.398 81.5878 130.173 81.7614C131.249 81.8665 134.653 82.0254 135.589 81.7972L135.726 81.5546C135.554 80.7839 134.861 80.5065 134.14 80.5665C131.342 80.7983 128.999 80.6134 126.21 80.3397Z" fill="#86838B"/>
<path d="M122.213 77.2852L122.788 77.298C122.696 78.7929 117.936 79.1053 117.053 78.0805C117.711 77.254 121.173 77.3377 122.213 77.2852Z" fill="#86838B"/>
<path d="M114.569 81.6324C114.589 80.6007 114.162 79.023 115.196 78.5391C115.784 78.5391 115.899 78.5973 116.448 78.8317C116.034 80.198 116.491 80.5308 116.33 81.7071L114.569 81.6324Z" fill="#9E9AA2"/>
<path d="M134.466 78.6035C135.491 78.534 137.179 78.7802 138.128 79.1757L138.179 79.3355C137.831 79.5752 137.283 79.5082 136.841 79.5015C136.125 79.7991 134.601 79.957 133.967 79.452C133.869 79.017 134.168 78.8037 134.466 78.6035Z" fill="#403E44"/>
<path d="M42.0215 75.0625C44.2881 75.0766 45.6354 75.0944 47.866 75.3513C46.8994 76.1255 42.9775 75.9383 42.0215 75.0625Z" fill="#706C75"/>
<path d="M159.05 41.2754C163.804 41.4163 168.529 41.8754 173.162 42.9504C174.121 43.1729 175.206 43.2987 176.134 43.5637C178.704 44.297 181.207 45.2404 183.842 45.7476C188.19 46.6396 192.385 49.0562 196.726 50.2073C201.489 51.4704 205.993 54.1061 210.299 56.4567C211.648 57.2092 216.531 59.7105 216.611 61.1723C217.109 70.3776 208.321 76.3888 200.605 79.1388C199.767 79.4378 199.515 79.304 198.716 79.2112C194.191 81.5503 192.563 81.3301 187.623 82.5575C187.482 82.1891 187.413 81.6964 187.473 81.3015C188.318 81.2688 189.828 79.613 190.42 78.989C190.185 78.1529 190.051 77.6668 189.509 76.9912C189.418 77.2473 189.669 77.6431 189.774 77.9395C190.174 79.0697 188.779 80.9563 187.623 80.7306C187.027 80.1595 187.031 78.3852 186.546 77.4586C185.724 77.4171 184.558 76.9273 183.807 76.5958C184.179 76.3467 184.523 76.2748 184.952 76.1513C185.855 76.1392 187.206 75.3206 188.145 75.1224C189.066 74.9279 190.751 75.0544 191.585 74.7476C192.565 74.3869 193.653 73.8128 194.693 73.396C195.552 72.9801 196.577 72.6407 197.486 72.3147C197.669 72.2949 198.382 72.0507 198.593 71.983C198.862 71.8943 199.131 71.8001 199.398 71.7007C202.427 70.5695 206.252 68.6487 208.094 65.9337C208.441 65.4217 208.961 64.2594 209.233 63.6639C207.484 62.8925 204.02 60.8594 202.72 60.4093C202.359 60.0819 200.228 59.0857 199.525 58.5879C196.047 56.0363 195.463 56.0022 191.406 55.0833C190.762 54.9373 186.576 52.6159 185.529 52.1691L185.62 51.9457C185.163 51.5137 179.293 50.3624 178.705 50.6192C178.325 50.6107 174.375 49.3516 173.958 49.1315L174.021 49.0374C173.89 48.7554 173.943 48.5194 173.881 48.2165C173.687 47.2359 172.879 46.3972 172.092 45.8291C170.828 44.9175 170.112 46.7138 169.524 47.5784L169.612 47.5518L169.602 47.6789L169.088 47.7811L167.888 47.5493C167.327 47.4154 166.682 47.3129 166.109 47.2083C163.685 46.7963 161.3 46.7874 158.807 46.2742C158.072 46.2425 156.22 45.8359 155.439 45.6857C153.758 45.3717 152.073 45.0772 150.384 44.8025C150.044 44.5512 146.882 44.6937 145.732 44.4512C145.296 43.8846 144.309 43.2223 144.202 42.6318L143.987 42.5027L144.126 42.3652C147.403 43.1336 148.018 42.2053 150.968 41.8703C151.986 41.5897 155.733 41.6441 157.002 41.5213C157.675 41.4564 158.387 41.3431 159.05 41.2754Z" fill="#433942"/>
<path d="M150.968 41.8703C151.562 41.8625 152.606 41.7466 152.988 42.1612C153.659 42.8909 154.669 44.4286 155.484 44.9445L155.673 44.9555C156.173 44.3501 155.452 42.9213 156.399 42.9766C157.103 43.0178 159.35 43.4288 159.848 43.9394C160.487 44.593 160.331 45.339 160.698 46.1203C160.538 46.1021 159.052 46.2529 158.807 46.2742C158.072 46.2425 156.22 45.8359 155.439 45.6857C153.758 45.3718 152.073 45.0773 150.384 44.8026C150.044 44.5512 146.882 44.6937 145.732 44.4513C145.296 43.8846 144.309 43.2224 144.202 42.6319L143.987 42.5027L144.126 42.3652C147.403 43.1337 148.018 42.2054 150.968 41.8703Z" fill="#161321"/>
<path d="M194.693 73.3965L194.724 73.6647C193.752 74.0936 187.051 77.0562 186.546 77.4591C185.723 77.4176 184.558 76.9277 183.807 76.5963C184.178 76.3472 184.523 76.2753 184.952 76.1518C185.855 76.1397 187.206 75.3211 188.145 75.1229C189.066 74.9284 190.751 75.0549 191.585 74.7481C192.565 74.3874 193.653 73.8133 194.693 73.3965Z" fill="#86838B"/>
<path d="M160.698 46.1192C161.143 46.423 163.753 46.7042 164.23 46.5946C164.264 46.4827 164.333 46.1581 164.425 46.1234C165.178 45.8348 167.357 45.3848 167.995 45.9174C167.946 46.6048 167.614 46.4543 167.588 46.9658C167.945 47.3152 167.939 47.2279 168.488 47.3759C168.288 47.4347 168.088 47.4922 167.888 47.5482C167.327 47.4143 166.682 47.3118 166.109 47.2072C163.685 46.7952 161.3 46.7863 158.807 46.2731C159.052 46.2517 160.538 46.101 160.698 46.1192Z" fill="#3A323E"/>
<path d="M81.5669 39.2301C82.4176 39.2684 85.0114 38.5522 86.7303 38.5851C89.2295 38.6328 90.6621 38.9342 93.0969 39.2001C96.352 39.5557 99.5911 39.2132 102.81 38.7232C109.957 38.5494 116.775 38.557 123.868 39.3735C125.456 39.5564 127.838 39.3045 129.31 39.6302C130.836 39.6469 132.376 39.9154 133.88 40.1662L154.269 41.2726C155.84 41.3579 157.474 41.1661 159.05 41.2753C158.387 41.343 157.675 41.4562 157.002 41.5212C155.733 41.644 151.986 41.5896 150.968 41.8701C148.018 42.2052 147.403 43.1335 144.126 42.3651C143.218 41.9488 142.646 42.1504 141.708 42.2192C143.448 44.7388 138.5 44.515 137.239 44.4589L136.878 44.609C132.954 44.3253 130.11 44.5305 126.286 44.4867L101.643 44.3876C97.5583 44.375 93.2718 43.877 89.1835 43.7975C86.8149 43.7513 84.6389 44.2981 82.1138 43.6981C81.1586 43.6378 79.58 44.0183 78.6802 43.9302C73.1711 43.3903 66.5484 44.631 61.1673 43.8176C61.0895 43.6045 60.9907 42.9886 60.8753 42.8392C60.4535 42.2925 58.199 42.3383 58.4611 41.3164C58.7752 41.012 58.948 40.9854 59.3627 40.8513C60.1097 40.8635 60.3231 40.8624 61.0461 40.6926C63.5496 40.4526 66.0241 40.2478 68.5375 40.1505C69.7096 40.1051 74.5079 40.3819 75.1803 39.8385L74.7268 39.7087C76.4626 39.2542 79.3877 39.7013 81.5669 39.2301Z" fill="#3A323E"/>
<path d="M133.88 40.166L154.269 41.2724C155.84 41.3576 157.474 41.1659 159.05 41.275C158.387 41.3428 157.674 41.456 157.002 41.521C155.733 41.6437 151.986 41.5894 150.968 41.8699C148.018 42.205 147.403 43.1333 144.126 42.3648C143.218 41.9485 142.646 42.1502 141.708 42.219C143.448 44.7386 138.5 44.5148 137.239 44.4587C136.965 44.3981 136.799 44.3443 136.532 44.2513C136.409 43.6952 136.063 43.7889 135.577 43.7131C133.985 43.4635 131.718 42.3243 130.425 41.4343L130.388 41.434C130.704 41.3462 131.112 41.2682 131.44 41.1966C130.571 40.916 130.303 40.7507 129.54 40.293C129.871 40.3028 130.159 40.4491 130.432 40.4554C131.403 40.478 132.981 40.4219 133.88 40.166Z" fill="#3E3C48"/>
<path d="M131.44 41.1973C132.705 41.6564 135.87 41.8604 137.3 41.9858C138.349 42.0777 140.878 41.8114 141.708 42.2197C143.448 44.7393 138.5 44.5155 137.239 44.4594C136.965 44.3988 136.799 44.345 136.532 44.252C136.409 43.6959 136.063 43.7896 135.577 43.7138C133.985 43.4642 131.718 42.325 130.425 41.435L130.388 41.4347C130.704 41.3469 131.112 41.2689 131.44 41.1973Z" fill="#161321"/>
<path d="M129.31 39.6305C130.836 39.6472 132.376 39.9157 133.88 40.1666C132.98 40.4224 131.403 40.4785 130.432 40.456C130.159 40.4496 129.871 40.3034 129.539 40.2936C128.13 40.304 126.56 40.0269 125.204 39.6686C126.469 39.5845 128.017 39.6338 129.31 39.6305Z" fill="#66606A"/>
<path d="M64.4903 41.8262C66.5304 41.8337 69.7387 41.7674 71.7661 42.2449C72.0899 42.3211 72.1332 42.5516 72.0765 42.836C71.3449 43.3157 69.7282 43.4683 68.8625 43.5753C67.9315 43.6384 60.4955 44.1535 61.259 42.2183C61.8867 41.7498 63.6202 41.8447 64.4903 41.8262Z" fill="#161321"/>
<path d="M114.634 42.3505C115.438 42.2694 119.114 42.0503 119.445 42.6704L119.319 42.5917L119.424 42.6652L119.222 42.5975L119.162 42.8795L118.53 43.0007C118.427 43.0106 118.323 43.0191 118.219 43.0259C117.402 43.079 114.303 43.1221 113.717 42.6055C114.014 42.3406 114.169 42.4067 114.634 42.3505Z" fill="#161321"/>
<path d="M63.1216 40.9622C63.4626 40.9507 63.9303 40.932 64.1195 41.2328C63.8122 41.5236 63.4111 41.5041 62.9779 41.5453C62.517 41.5758 62.1328 41.5879 61.6709 41.5888C61.7387 41.438 62.8663 41.0601 63.1216 40.9622Z" fill="#403E44"/>
<path d="M176.399 76.7917C180.384 76.0448 180.901 75.9702 184.952 76.1512C184.523 76.2747 184.178 76.3466 183.807 76.5957C184.558 76.9272 185.723 77.417 186.546 77.4585C187.031 78.3851 187.027 80.1594 187.623 80.7305C188.779 80.9563 190.174 79.0696 189.774 77.9394C189.669 77.643 189.418 77.2472 189.508 76.9911C190.051 77.6667 190.185 78.1529 190.42 78.9889C189.828 79.613 188.318 81.2687 187.473 81.3014C187.413 81.6963 187.482 82.189 187.623 82.5574C187.432 82.5953 187.079 82.6775 186.9 82.686C185.54 82.952 183.933 83.0624 182.537 83.2423C181.374 83.3921 180.12 83.646 178.984 83.7722C178.142 84.0995 177.147 84.6096 176.318 85.008C174.492 84.3687 172.845 82.9801 171.049 82.4889C169.226 81.9906 166.478 82.0897 165.087 83.4723C163.45 85.0994 164.06 83.8119 162.601 83.7057C160.64 84.0102 159.926 84.7085 157.733 84.7553C154.826 84.7932 150.4 85.2803 147.619 84.8684C148.006 84.6205 149.473 83.6153 149.782 83.5211C151.181 83.0953 155.548 83.5385 156.628 82.9944L156.655 82.7758C155.694 82.0792 152.795 82.7039 151.529 82.0348C150.567 81.5259 150.952 80.9539 150.161 80.4807C150.407 80.2115 150.417 80.1531 150.52 79.8009C150.894 79.8581 151.326 79.8859 151.587 80.1719C152.338 78.7802 153.862 78.7821 154.525 78.1737C155.72 77.6758 158.654 77.7791 159.957 77.6178C163.515 77.1768 166.987 77.0969 170.565 77.1061C172.435 77.1109 174.549 76.6442 176.399 76.7917ZM160.459 82.4978C160.99 82.2351 160.961 82.3555 161.162 81.9197C160.877 81.494 160.577 81.3914 160.058 81.3572C159.739 81.6227 159.539 81.7357 159.458 82.1484L159.547 82.4186C159.926 82.594 159.99 82.5894 160.459 82.4978Z" fill="#66606A"/>
<path d="M150.52 79.8008C150.894 79.8579 151.326 79.8858 151.587 80.1717C151.71 80.2421 151.867 80.3318 152.058 80.4406C154.669 80.5741 158.505 79.8321 160.987 80.1607C161.32 80.39 161.957 80.7697 162.133 81.0877C161.917 81.5535 161.657 81.7775 161.727 82.1547C162.449 82.5362 167.166 81.201 168.793 81.1089C173.759 80.8283 175.109 83.1792 178.984 83.7721C178.142 84.0993 177.147 84.6094 176.318 85.0078C174.492 84.3686 172.845 82.9799 171.049 82.4887C169.226 81.9905 166.478 82.0895 165.087 83.4722C163.45 85.0992 164.06 83.8117 162.601 83.7055C160.64 84.0101 159.926 84.7084 157.733 84.7552C154.826 84.7931 150.4 85.2802 147.619 84.8682C148.006 84.6203 149.473 83.6151 149.782 83.521C151.181 83.0951 155.548 83.5383 156.628 82.9942L156.655 82.7756C155.694 82.079 152.795 82.7037 151.529 82.0346C150.567 81.5258 150.952 80.9537 150.161 80.4805C150.407 80.2114 150.417 80.1529 150.52 79.8008ZM160.459 82.4976C160.99 82.2349 160.961 82.3553 161.162 81.9195C160.877 81.4938 160.577 81.3912 160.058 81.357C159.739 81.6226 159.539 81.7355 159.458 82.1482L159.547 82.4184C159.926 82.5938 159.99 82.5892 160.459 82.4976Z" fill="#86838B"/>
<path d="M160.057 81.3574C160.577 81.3916 160.877 81.4942 161.162 81.92C160.961 82.3557 160.99 82.2354 160.459 82.498C159.99 82.5896 159.926 82.5943 159.547 82.4189L159.458 82.1487C159.539 81.7359 159.739 81.623 160.057 81.3574Z" fill="#9E9AA2" fill-opacity="0.984314"/>
<path d="M186.9 82.6859C186.01 82.4782 183.268 82.7113 182.782 82.1722L182.823 81.9004C183.585 81.0342 185.693 80.4203 186.85 80.58C187.24 80.6337 187.323 80.9947 187.473 81.3013C187.413 81.6962 187.482 82.1889 187.623 82.5573C187.432 82.5952 187.079 82.6774 186.9 82.6859Z" fill="#403E44"/>
<path d="M176.399 76.7917C180.384 76.0448 180.901 75.9702 184.952 76.1512C184.523 76.2747 184.178 76.3466 183.807 76.5957C181.183 76.9138 179.569 76.4467 176.587 77.0729C176.406 76.9089 176.457 77.0055 176.399 76.7917Z" fill="#706C75"/>
<path d="M150.162 80.4805C150.952 80.9536 150.567 81.5257 151.529 82.0346C152.795 82.7037 155.695 82.079 156.655 82.7756L156.628 82.9942C155.549 83.5383 151.181 83.0951 149.782 83.5209C149.473 83.615 148.007 84.6203 147.619 84.8682C145.199 84.9581 142.541 84.576 140.122 84.4738C135.182 84.2651 130.502 83.9025 125.535 83.7627C126.784 83.2117 135.333 84.2292 136.506 83.166C136.63 82.6622 136.653 82.8395 136.514 82.4156C135.966 82.1011 135.782 82.4232 135.449 82.2973C134.188 81.8211 131.487 82.5434 130.394 82.106C131.218 82.0946 136.973 82.1923 137.108 82.1096C138.219 81.7597 139.598 82.0444 140.694 81.9231C143.367 81.6271 147.087 82.1036 149.663 81.706C149.729 81.1683 149.888 80.954 150.162 80.4805Z" fill="#66606A"/>
<path d="M46.7153 37.1046C47.4887 37.0993 51.2771 36.948 51.7325 37.4014L51.6943 37.9113C51.6276 38.2937 51.3932 40.0256 51.3849 40.4321C51.1212 40.5544 50.8537 40.6178 50.5707 40.6765L50.6464 40.6645C50.8445 40.8665 50.7494 40.8067 51.0511 40.8616L51.0879 41.0061L50.8766 41.0356L50.3634 40.9965C50.7395 41.5387 50.7896 41.8931 51.5046 41.88L51.5921 42.0204C51.265 42.3395 50.8958 42.6058 50.8499 43.04C50.9194 43.2515 51.0688 43.2889 51.2929 43.4371L51.1404 43.3973L51.2513 43.4227C51.4547 43.4675 51.6699 43.4875 51.8774 43.5108C49.9033 43.6821 48.3863 43.5128 46.4171 43.3524L46.4147 43.1757C45.5599 43.0819 45.6516 43.0404 45.3222 42.299L45.3324 41.1235C45.3052 40.9469 45.2734 40.9084 45.195 40.7504C44.7724 40.6918 44.6111 40.6535 44.2363 40.4432L44.9508 40.4318C45.5226 40.4333 45.7075 40.506 46.0917 40.1967C46.2068 39.8015 45.7755 38.9265 45.6177 38.369C45.4518 38.0192 45.334 37.8578 45.4246 37.4745C45.8008 37.1758 46.1942 37.1941 46.7153 37.1046Z" fill="#908B93"/>
<path d="M44.2363 40.443L44.9508 40.4316C46.5395 40.8942 48.0995 40.0164 50.3634 40.9963C50.7395 41.5385 50.7896 41.8929 51.5046 41.8798L51.5921 42.0202C51.265 42.3393 50.8958 42.6057 50.8499 43.0399C50.9194 43.2513 51.0688 43.2887 51.2929 43.437L51.1404 43.3972L51.2513 43.4225C51.4547 43.4673 51.6699 43.4873 51.8774 43.5107C49.9033 43.682 48.3863 43.5127 46.4171 43.3522L46.4147 43.1755C45.5599 43.0818 45.6516 43.0403 45.3222 42.2989L45.3324 41.1233C45.3052 40.9467 45.2734 40.9083 45.195 40.7502C44.7724 40.6916 44.6111 40.6533 44.2363 40.443Z" fill="#66606A"/>
<path d="M45.3325 41.1227C46.1132 40.8672 49.813 41.9273 50.1349 42.7932C49.6795 43.607 47.2557 43.2733 46.4148 43.1749C45.5599 43.0812 45.6517 43.0397 45.3223 42.2983L45.3325 41.1227Z" fill="#403E44"/>
<path d="M46.7152 37.1046C47.4886 37.0993 51.277 36.948 51.7324 37.4014L51.6942 37.9113C49.9369 38.8182 47.6192 38.4611 45.6176 38.369C45.4517 38.0192 45.3339 37.8578 45.4245 37.4745C45.8007 37.1758 46.1941 37.1941 46.7152 37.1046Z" fill="#403E44"/>
<path d="M32.5015 42.5116C30.7869 41.8976 27.8832 41.8168 27.0748 39.6704C26.9414 39.3161 26.9292 38.7755 27.1029 38.427C27.6208 37.9531 29.4174 38.3903 30.0529 38.6304C34.2236 40.2059 37.3366 38.6697 41.6166 38.0254C41.919 38.7966 42.3256 40.0464 43.2019 40.2975C41.6612 40.2245 32.8182 39.457 32.626 41.8014C32.6048 41.9321 32.5356 42.4166 32.5015 42.5116Z" fill="#908B93" fill-opacity="0.988235"/>
<path d="M30.3515 40.3359C30.8378 40.3495 31.3253 40.3674 31.7505 40.6037L31.7675 40.8042L31.4425 41.0083C30.8803 41.0121 30.329 41.0272 29.8579 40.6873L29.9175 40.4869L30.3515 40.3359Z" fill="#706C75"/>
<path d="M52.9918 37.334C55.393 37.3565 55.6297 37.9576 57.6731 38.3287C60.7362 38.8849 63.9464 38.9406 66.9844 39.6553C68.1799 39.9367 73.5976 39.9609 74.7268 39.7088L75.1804 39.8385C74.508 40.382 69.7097 40.1052 68.5376 40.1505C66.0242 40.2478 63.5496 40.4527 61.0462 40.6926C59.12 40.699 57.2535 40.6973 55.3253 40.7348C53.9364 40.7618 52.3513 40.9778 51.088 41.006L51.0513 40.8615L51.9598 40.6918C52.9562 40.5835 53.955 40.4981 54.9553 40.436L56.3717 40.4377L56.7362 40.5256C57.1185 40.3966 56.9957 40.4935 57.2089 40.1716L57.1379 39.9359C54.7595 37.8654 53.8184 39.8334 52.5623 39.3518C52.0606 38.5794 52.4675 37.9696 52.9918 37.334Z" fill="#A5A1AA" fill-opacity="0.984314"/>
<path d="M51.0878 41.0048C52.3511 40.9766 53.9362 40.7606 55.3251 40.7336C57.2533 40.696 59.1198 40.6978 61.0459 40.6914C60.3229 40.8612 60.1095 40.8623 59.3626 40.8501C58.9479 40.9843 58.7751 41.0108 58.4609 41.3152C58.1989 42.3371 60.4534 42.2914 60.8751 42.838C60.9905 42.9874 61.0893 43.6034 61.1672 43.8164C58.4222 43.146 54.6984 43.5797 51.8773 43.5095C51.6699 43.4862 51.4546 43.4662 51.2512 43.4214L51.1403 43.396L51.2928 43.4358C51.0687 43.2876 50.9194 43.2502 50.8499 43.0387C50.8958 42.6045 51.265 42.3382 51.592 42.0191L51.5045 41.8787C50.7895 41.8918 50.7394 41.5374 50.3633 40.9951L50.8765 41.0343L51.0878 41.0048Z" fill="#666368"/>
<path d="M51.0877 41.0048C52.3511 40.9766 53.9361 40.7606 55.3251 40.7336C57.2532 40.696 59.1197 40.6978 61.0459 40.6914C60.3228 40.8612 60.1095 40.8623 59.3625 40.8501C57.4411 40.7222 52.574 43.0043 50.945 41.1147L50.8765 41.0343L51.0877 41.0048Z" fill="#86838B"/>
<path d="M159.788 85.0792C160.247 85.194 160.491 85.2475 160.961 85.3006C161.674 85.0396 161.511 84.9265 162.047 84.4062L162.436 84.4562C162.558 85.1251 162.709 85.8595 162.79 86.529C163.762 86.1698 165.252 85.5162 166.146 85.2382C166.927 85.9621 166.392 86.9405 166.691 87.9298L167.158 88.0332C167.406 88.1748 167.739 88.3787 167.987 88.4998C165.622 88.5792 163.255 88.5561 160.892 88.4306C159.555 87.5692 159.186 86.5652 159.788 85.0792Z" fill="#86838B"/>
<path d="M32.626 41.8027C32.8181 39.4583 41.6611 40.2258 43.2019 40.2988L44.2362 40.4432C44.611 40.6535 44.7722 40.6918 45.1949 40.7504C45.2733 40.9084 45.3051 40.9469 45.3323 41.1235L45.3221 42.2991C43.8477 42.4509 41.2858 41.4197 39.4489 41.1171C37.6781 41.8721 35.2601 42.6696 33.1622 42.4137C32.8567 42.3766 32.7612 42.0688 32.626 41.8027Z" fill="#403E44"/>
<path d="M147.781 79.691C148.802 79.682 149.501 79.7119 150.52 79.8002C150.418 80.1524 150.407 80.2108 150.162 80.48C149.888 80.9535 149.729 81.1678 149.663 81.7055C148.327 81.4416 144.72 81.7538 143.15 81.68C141.651 81.6094 141.635 81.2252 140.315 81.419L140.194 81.2924C140.437 81.0756 140.816 81.1411 141.22 81.1221L141.259 80.9998C140.983 80.933 140.707 80.8578 140.429 80.8039C140.61 80.052 142.696 80.6393 143.293 80.1571C143.806 80.0602 144.102 80.0708 144.622 80.0926C145.716 80.1382 146.701 79.8315 147.781 79.691Z" fill="#A5A1AA" fill-opacity="0.988235"/>
<path d="M167.556 86.1822L168.507 85.3262C169.19 85.3923 169.179 85.286 169.653 85.6395C169.791 86.4609 169.279 86.2753 169.514 87.0052L169.752 87.1702C170.283 86.9985 170.549 86.5922 170.951 86.3176C171.254 86.1116 172.921 86.5085 173.183 86.734L173.241 86.7045C173.37 88.4832 169.271 88.716 167.987 88.4985C167.739 88.3775 167.406 88.1736 167.158 88.032C167.209 87.2305 167.317 86.9346 167.556 86.1822Z" fill="#403E44"/>
<path d="M32.626 41.8028C32.7613 42.0688 32.8568 42.3767 33.1622 42.4138C35.2601 42.6697 37.6782 41.8722 39.4489 41.1172C41.2858 41.4197 43.8478 42.4509 45.3221 42.2991C45.6515 43.0405 45.5597 43.082 46.4146 43.1758L46.417 43.3525C43.262 43.1007 36.0086 42.3105 33.3026 42.8759C32.9541 42.7658 32.8131 42.683 32.5015 42.513C32.5355 42.4179 32.6048 41.9335 32.626 41.8028Z" fill="#706C75" fill-opacity="0.988235"/>
<path d="M141.708 42.219C142.646 42.1501 143.218 41.9485 144.126 42.3648L143.987 42.5023L144.202 42.6314C144.309 43.2219 145.296 43.8842 145.732 44.4508C146.882 44.6933 150.044 44.5508 150.384 44.8021C148.097 44.8 145.805 45.0514 143.531 45.0654C141.398 45.0787 139.026 44.8125 136.878 44.6087L137.239 44.4586C138.5 44.5147 143.448 44.7385 141.708 42.219Z" fill="#403E44" fill-opacity="0.988235"/>
<path d="M41.6167 38.0263C43.7573 37.3886 44.4891 37.0262 46.7153 37.1042C46.1942 37.1937 45.8009 37.1754 45.4246 37.4741C45.334 37.8574 45.4518 38.0189 45.6177 38.3687C45.7755 38.9262 46.2068 39.8012 46.0917 40.1964C45.7075 40.5057 45.5226 40.4329 44.9508 40.4315L44.2363 40.4429L43.202 40.2985C42.3257 40.0474 41.9191 38.7976 41.6167 38.0263Z" fill="#9D9AA4" fill-opacity="0.984314"/>
<path d="M136.602 80.8071C136.626 80.1308 136.552 80.0884 136.97 79.6618C138.128 79.1874 139.163 80.4759 139.752 80.4102C140.993 80.2715 141.643 79.9637 143.081 80.097L143.293 80.1567C142.696 80.6389 140.61 80.0516 140.428 80.8034C140.707 80.8574 140.983 80.9325 141.259 80.9994L141.22 81.1216C140.816 81.1407 140.436 81.0752 140.194 81.292L140.314 81.4186C141.635 81.2248 141.651 81.609 143.15 81.6795C144.72 81.7533 148.327 81.4411 149.663 81.7051C147.087 82.1027 143.367 81.6262 140.694 81.9221C139.598 82.0434 138.219 81.7588 137.108 82.1087L136.715 81.9555C136.472 81.6186 136.565 81.2354 136.602 80.8071Z" fill="#9E9AA2" fill-opacity="0.988235"/>
<path d="M169.088 47.7815L169.602 47.6793L169.612 47.5523L169.524 47.5788C170.112 46.7142 170.828 44.9179 172.092 45.8295C172.879 46.3976 173.687 47.2363 173.881 48.2169C173.943 48.5198 173.89 48.7558 174.021 49.0378L173.958 49.1319C172.512 48.6517 170.608 48.2134 169.088 47.7815Z" fill="#403E44" fill-opacity="0.988235"/>
<path d="M168.507 85.327C169.455 85.1257 172.1 85.0532 173.095 85.2734C173.3 85.3186 173.248 86.4592 173.241 86.7053L173.183 86.7348C172.92 86.5093 171.253 86.1124 170.951 86.3184C170.549 86.593 170.283 86.9993 169.752 87.171L169.513 87.006C169.279 86.2761 169.791 86.4617 169.653 85.6403C169.179 85.2868 169.19 85.3931 168.507 85.327Z" fill="#706C75" fill-opacity="0.960784"/>
<path d="M51.7324 37.4013C52.1878 37.3962 52.5383 37.3986 52.9915 37.334C52.4672 37.9696 52.0603 38.5794 52.562 39.3518C53.8181 39.8334 54.7591 37.8654 57.1376 39.9359L57.2086 40.1716C56.9954 40.4935 57.1182 40.3966 56.7358 40.5256C57.2267 38.6152 53.0933 40.0193 52.5679 40.0296C52.3392 39.8004 52.2733 39.6932 51.9652 39.6154L51.9613 39.9196L51.3848 40.432C51.393 40.0255 51.6275 38.2936 51.6942 37.9112L51.7324 37.4013Z" fill="#9E9AA2" fill-opacity="0.898039"/>
<path d="M51.9612 39.9184L51.9652 39.6142C52.2733 39.6921 52.3392 39.7992 52.5678 40.0284C53.0932 40.0181 57.2266 38.6141 56.7358 40.5244L56.3713 40.4365C56.455 40.2913 56.4284 40.2771 56.4317 40.0857C56.0076 39.757 54.5761 39.8493 54.1287 40.1362C54.3387 40.3979 54.5445 40.3539 54.955 40.4348C53.9546 40.4969 52.9558 40.5823 51.9595 40.6906C52.1637 40.5582 52.1546 40.5305 52.2568 40.3145L51.9612 39.9184Z" fill="#B5B4BA" fill-opacity="0.780392"/>
<path d="M178.705 50.619C179.293 50.3622 185.162 51.5135 185.62 51.9454L185.528 52.1688C183.204 51.3977 181.318 51.5365 178.705 50.619Z" fill="#3A323E" fill-opacity="0.984314"/>
<path d="M166.146 85.2374C166.924 84.488 166.867 83.4685 167.767 83.6329C168.062 83.9533 168.015 84.2054 167.788 84.5843C167.182 84.8804 167.077 84.7758 166.752 85.2535C166.601 86.2617 166.833 87.0436 166.691 87.929C166.391 86.9397 166.927 85.9612 166.146 85.2374Z" fill="#9E9AA2" fill-opacity="0.0784314"/>
<path d="M143.081 80.0987C143.783 79.5409 146.74 79.6797 147.781 79.6922C146.702 79.8327 145.716 80.1394 144.622 80.0938C144.102 80.072 143.806 80.0614 143.293 80.1584L143.081 80.0987Z" fill="#A5A1AA" fill-opacity="0.882353"/>
<path d="M54.9551 40.4347C54.5447 40.3538 54.3388 40.3978 54.1289 40.1361C54.5762 39.8492 56.0077 39.7569 56.4318 40.0856C56.4285 40.277 56.4552 40.2912 56.3715 40.4364L54.9551 40.4347Z" fill="#9E9AA2" fill-opacity="0.65098"/>
<path d="M51.9616 39.9199L52.2572 40.3161C52.1549 40.532 52.1641 40.5597 51.9599 40.6922L51.0513 40.8619C50.7496 40.807 50.8447 40.8668 50.6465 40.6648L50.5708 40.6768C50.8538 40.6181 51.1213 40.5547 51.3851 40.4323L51.9616 39.9199Z" fill="#B5B4BA" fill-opacity="0.482353"/>
</svg>
