<svg width="46" height="43" viewBox="0 0 46 43" fill="none" xmlns="http://www.w3.org/2000/svg">
<path d="M20.8235 0.5V11.5608" stroke="black" stroke-linecap="round"/>
<path d="M29.4719 12.3554C29.4924 12.3342 29.5129 12.3129 29.826 12.0838C30.139 11.8546 30.7439 11.4181 31.5601 10.7249C32.3764 10.0317 33.3856 9.09501 35.2132 7.55737" stroke="black" stroke-linecap="round"/>
<path d="M33.855 21.0239H45.262" stroke="black" stroke-linecap="round"/>
<path d="M33.0293 30.7397C33.0293 30.802 33.0293 30.8642 33.1234 31.2087C33.2175 31.5531 33.4057 32.1778 33.8531 33.0302C34.3005 33.8826 35.0014 34.9438 35.7235 36.0371" stroke="black" stroke-linecap="round"/>
<path d="M19.9578 33.5383C19.9578 33.6482 19.9578 33.758 19.9578 35.1512C19.9578 36.5443 19.9578 39.2174 19.7825 41.5454" stroke="black" stroke-linecap="round"/>
<path d="M7.11148 15.995C7.08406 15.995 7.05665 15.995 6.20401 15.4421C5.35137 14.8893 3.67435 13.7835 1.4646 12.4661" stroke="black" stroke-linecap="round"/>
<path d="M12.4861 10.3364C12.4522 10.2685 12.4183 10.2007 12.1483 9.63652C11.8784 9.07233 11.3735 8.01387 10.8533 6.92334" stroke="black" stroke-linecap="round"/>
<path d="M12.2402 33.8635C12.2402 33.8842 11.386 35.3638 10.0307 37.772C9.52955 38.7113 9.40741 39.0766 9.24224 39.395C9.07706 39.7135 8.87256 39.9741 8.66187 40.2426" stroke="black" stroke-linecap="round"/>
<path d="M9.55494 25.7417C9.53899 25.7417 8.31823 25.7651 6.22335 25.8499C5.34101 25.9113 4.82563 26.01 3.95097 26.2528C3.07631 26.4956 1.85799 26.8796 0.500244 27.2751" stroke="black" stroke-linecap="round"/>
<path d="M21.9276 16.5627C20.7384 16.5627 18.2403 16.6389 17.9175 16.8598C17.0139 17.4781 16.7917 18.7398 16.324 21.7622C15.9872 23.9379 16.2895 25.4906 16.5618 26.0917C17.1413 27.3708 18.6506 28.4474 19.6608 28.9521C21.393 29.8176 23.7959 29.2714 24.5627 28.964C25.431 28.6159 26.8071 25.4413 27.5382 23.5632C27.9312 22.5537 27.6728 21.2757 27.2645 20.1484C26.5132 18.0741 25.2597 17.4131 23.9682 16.651C23.4371 16.4469 22.9622 16.3768 22.4494 16.4026C22.1799 16.4355 21.8915 16.509 21.2125 16.7633" stroke="black" stroke-linecap="round"/>
</svg>
