<svg width="35" height="240" viewBox="0 0 35 240" fill="none" xmlns="http://www.w3.org/2000/svg">
<path d="M21.3163 203.743C21.2987 203.997 21.1267 204.342 21.0753 204.637C20.8563 205.88 20.707 206.335 20.4918 207.458C20.1794 209.124 19.5305 214.109 18.8668 214.023C18.8668 214.023 18.8668 214.023 18.8668 214.023C18.8668 214.023 18.8668 214.023 18.8668 214.023C18.8668 214.023 18.8668 214.023 18.8668 214.023C18.8602 214.022 18.8536 214.021 18.847 214.019C18.7223 213.985 18.6412 213.543 18.5032 213.461C18.3652 213.38 17.4185 213.306 17.4298 212.696C17.4524 211.812 17.937 209.747 17.9805 209.279C18.0084 208.96 17.9586 208.555 17.9861 208.146C18.0744 206.825 18.2247 206.145 18.0793 204.926C18.2724 204.47 18.4687 204.016 18.6688 203.559C18.6691 202.933 18.9712 202.02 19.0041 201.644C19.0307 201.333 18.9301 201.143 18.961 200.817C18.9941 200.456 19.1886 199.922 19.2443 199.262C19.3359 198.184 19.028 197.952 19.0563 197.301C19.0848 196.628 19.3853 195.61 19.3619 194.74C19.3362 194.628 19.3097 194.52 19.284 194.406C19.1892 194.473 19.0953 194.536 19.0013 194.602C19.0078 194.165 19.2041 194.008 19.2523 193.608C19.3083 193.145 19.1647 192.887 19.201 192.569C19.2299 192.315 19.4074 191.985 19.4385 191.647C19.4478 191.546 19.4459 191.47 19.4371 191.411C19.4044 191.175 19.2688 191.181 19.2624 190.973C19.2649 190.854 19.3569 188.968 19.3558 188.87C19.4152 188.081 19.7059 188.036 19.7744 187.402C19.9592 185.617 19.7628 183.763 19.6966 182.066C19.6665 181.325 19.694 180.531 19.7526 179.783C20.5415 180.971 21.2201 178.396 19.9307 179.335C20.1229 178.492 19.7822 177.885 19.8456 177.108C19.8873 176.607 20.0726 176.222 20.0729 175.513C20.0767 174.189 19.5447 172.752 20.5138 172.419C20.3541 170.864 20.7238 169.573 19.8473 168.989C19.7926 168.609 20.3222 167.607 20.3984 167.146C20.4665 166.758 20.7306 163.542 20.7494 163.006C20.7674 162.445 20.7881 161.58 20.709 161.123C20.6134 160.57 19.6336 160.122 20.784 159.186C20.6977 158.057 20.7329 157.574 20.875 156.553C20.9007 156.362 21.0748 156.343 21.0759 156.231C21.0778 156 20.9518 155.602 20.9388 155.179C20.9275 154.808 21.0286 154.52 21.0393 154.343C21.0485 154.197 20.9885 154.131 20.7241 154.162C20.6312 153.719 20.5377 153.271 20.4434 152.818C20.5543 152.661 20.6656 152.504 20.7772 152.346C20.6579 152.1 20.5381 151.853 20.4178 151.605C21.2501 151.894 20.7678 150.203 20.2833 150.741C20.4586 149.882 20.637 149.006 20.8185 148.113C21.7857 148.247 20.945 146.215 20.4094 146.372C20.4105 146.272 20.4117 146.172 20.4128 146.071C20.6769 145.191 20.4663 144.374 20.6477 143.321C20.8304 142.256 20.9275 142.354 21.3904 142.035C21.3662 141.78 21.342 141.525 21.3177 141.268C20.0546 139.936 22.261 140.22 21.2992 137.924C22.1161 137.202 21.7116 135.447 21.4706 134.242C21.4427 134.103 21.2826 134.098 21.2346 133.912C21.1189 133.461 21.3347 132.336 20.8136 132.365C20.9665 131.974 21.1203 131.581 21.275 131.186C21.1823 130.86 21.0893 130.534 20.996 130.206C20.8318 130.205 20.6677 130.204 20.5036 130.204C21.0665 129.553 20.8584 128.546 20.9962 128.041C21.0243 127.941 21.2529 127.923 21.3179 127.612C21.3951 127.248 21.3329 126.564 21.4085 126.127C21.1549 125.951 20.9007 125.78 20.646 125.609C20.5109 124.837 21.1895 124.574 21.2462 124.119C21.256 124.038 21.219 122.535 21.205 122.453C21.0948 121.784 20.5099 121.968 20.6458 120.063C20.6705 119.723 20.8757 119.451 20.8861 119.142C20.9052 118.596 20.4514 116.949 20.0204 116.818C20.5621 116.17 20.3518 114.401 20.5116 113.88C20.5609 113.724 20.9078 113.689 20.9853 113.212C21.0487 112.824 20.7771 111.817 20.8272 111.321C20.8819 110.796 21.1775 110.612 21.2003 110.376C21.2216 110.153 20.9854 109.943 20.989 109.639C21.0043 108.69 21.3963 107.844 21.4105 107.094C21.432 106.012 20.7274 105.039 20.4149 104.133C20.4627 103.909 20.6181 103.691 20.6212 103.455C20.6644 100.537 20.8232 97.2505 21.0061 94.3283C21.0883 92.972 22.124 89.6077 20.4435 90.4866C20.1536 90.0104 20.8586 86.5899 20.8763 85.9359C20.8926 85.2834 20.5949 84.7626 20.595 84.2505C20.5956 82.707 20.8255 81.6101 20.5783 79.7292C20.5136 79.2445 20.157 78.7158 20.1638 78.4269C20.1729 78.0789 20.5265 77.7093 20.5532 77.2597C20.6141 76.1885 20.5187 74.1947 20.5904 73.1622C20.6042 72.9745 20.9139 72.9126 21.0134 72.6455C21.4024 71.6048 21.3832 70.4421 20.3921 70.6335C20.968 69.2914 20.4696 68.0448 20.4515 66.8112C20.4161 64.1667 20.7051 59.4097 20.3161 57.1044C20.0705 55.6495 19.6228 55.7107 20.0361 53.5725C20.0421 53.5413 20.0483 53.5102 20.0545 53.4791C20.1437 53.037 20.2568 52.5928 20.3602 52.0623C20.6211 50.7479 21.4642 49.4969 20.4954 48.4712C20.7813 47.0119 20.6318 45.787 21.4938 44.7056C21.2963 44.5736 21.0991 44.4419 20.9022 44.3105C20.9019 44.1298 20.9017 43.9497 20.9016 43.7701C21.0936 43.7165 21.2854 43.663 21.4771 43.6096C21.5579 42.2717 20.83 40.6429 20.8755 39.5203C20.9437 37.6597 21.4209 32.8819 21.7247 31.1384C21.7525 30.9809 21.7644 30.8497 21.7693 30.7376C21.7924 30.1677 21.6565 30.0542 22.2937 29.6161C22.249 29.4053 22.2047 29.196 22.1609 28.9882C22.0029 28.8564 21.8458 28.7253 21.6894 28.5947C21.7377 27.4141 22.0483 25.9829 22.0966 24.8413C22.1765 22.7823 21.9572 19.6237 22.3303 17.5467C22.4229 17.0235 22.7295 16.3945 22.7519 15.8626C22.785 15.1061 22.3597 14.9608 22.4152 13.9829C22.5197 12.3584 23.1586 9.31724 23.207 7.78528C23.2247 7.34086 23.1115 7.09696 23.1193 6.793C23.1528 5.4629 23.232 4.38583 23.1669 3.10842C23.5472 1.73517 23.8592 1.88817 24.2062 1.44936C24.4727 1.12936 25.0182 0.167173 25.2043 0.0198412C25.3394 -0.0802077 25.5358 0.295227 25.6847 0.159371C25.9031 1.79316 25.8138 2.47517 25.5981 3.80783C25.7001 6.27831 25.7971 8.70202 25.8872 11.1715C25.7581 11.401 25.6262 11.6248 25.4916 11.8372C25.4913 11.8372 25.491 11.8372 25.4907 11.8372C25.3444 12.7615 25.7158 13.1981 25.8161 13.687C26.6408 17.8266 26.539 25.2998 26.314 30.7965C26.281 31.7506 26.2515 32.6701 26.2373 33.5085C26.2175 34.6393 26.5205 38.4125 26.1737 39.202C26.0836 39.4081 25.7538 39.4616 25.7388 39.6831C25.9306 41.6174 26.1246 43.6038 26.3176 45.5334C25.9563 48.1897 25.9989 50.8701 26.0777 53.558C26.1178 54.9854 26.1701 56.3343 26.1792 57.7352C26.2549 68.6727 26.3496 79.4935 26.0692 90.2466C26.0155 92.3257 26.2123 94.9647 26.0128 96.9972C25.9298 97.8459 25.3972 98.1928 25.7674 99.313C25.6257 99.3227 25.484 99.3325 25.3422 99.3422C25.4951 100.317 25.8037 100.943 25.814 102.036C25.8225 102.959 25.7929 105.381 25.7226 106.199C25.6872 106.62 25.4308 106.459 25.4242 106.852C25.4153 107.527 25.7427 108.959 25.722 109.891C25.7034 110.735 25.3782 112.148 25.4074 112.791C25.5099 115.125 25.8798 117.653 25.7046 120.142C25.6555 120.826 25.3138 121.696 25.3181 121.909C25.327 122.332 25.6346 122.462 25.6674 122.745C25.8325 124.189 25.4102 126.391 25.3619 127.806C25.2028 132.371 25.2043 137.207 25.0241 141.751C24.9133 144.614 24.8205 149.417 24.5405 152.05C24.4801 152.627 24.1914 152.469 24.1784 152.95C24.1642 153.481 24.3529 153.767 24.3615 154.011C24.3659 154.131 24.3705 154.26 24.375 154.398C24.4342 156.312 24.4792 159.625 24.2518 161.174C24.2052 161.484 23.9823 161.702 23.9777 161.885C23.9749 161.977 24.1155 162.189 24.1212 162.475C24.1698 165.105 24.0198 166.987 23.884 169.529C23.6216 174.424 23.6699 180.049 23.1858 185.237C23.0773 186.364 22.6663 187.114 22.6558 187.273C22.6302 187.618 22.8366 187.866 22.8092 188.582C22.7714 189.579 22.5938 190.718 22.4063 191.821C22.1483 193.35 21.8691 194.923 21.7425 196.197C21.6356 197.283 21.6669 198.795 21.5597 199.866C21.4745 200.72 21.0825 202.71 21.1278 203.099C21.1548 203.335 21.3344 203.468 21.3163 203.743ZM20.2939 174.726C20.7394 174.874 20.3823 173.298 20.1353 173.884C20.0801 174.024 20.1792 174.668 20.2939 174.726ZM21.8009 99.5679C21.613 99.5801 21.4252 99.5922 21.2373 99.6043C21.3136 99.816 21.3897 100.028 21.4657 100.239C21.5795 100.122 21.6934 100.006 21.8073 99.8889C21.8052 99.7819 21.8031 99.6749 21.8009 99.5679Z" fill="black"/>
<path d="M31.3397 228.275C31.3607 228.197 31.5361 228.145 31.5891 228.061C31.8097 227.711 31.9535 227.597 32.1377 227.256C32.4546 226.756 32.6047 225.094 33.2275 225.031C33.2275 225.031 33.2275 225.031 33.2275 225.031C33.2275 225.031 33.2275 225.031 33.2275 225.031C33.2341 225.031 33.2408 225.03 33.2476 225.03C33.3759 225.03 33.5176 225.185 33.6659 225.207C33.814 225.228 34.7684 225.179 34.8431 225.449C34.9567 225.843 34.6568 226.755 34.632 226.952C34.6248 227.092 34.6999 227.282 34.6895 227.466C34.6518 228.062 34.5035 228.328 34.6306 228.946C34.4243 229.101 34.2099 229.244 33.9889 229.375C33.9627 229.66 33.6017 229.943 33.541 230.091C33.4918 230.215 33.5731 230.349 33.5141 230.478C33.4484 230.624 33.2103 230.76 33.0827 231.015C32.8728 231.429 33.1208 231.714 33.0001 231.985C32.873 232.267 32.4405 232.509 32.3031 232.893C32.305 232.959 32.3061 233.026 32.3078 233.092C32.4013 233.131 32.4955 233.169 32.5895 233.206C32.4998 233.393 32.3001 233.32 32.1817 233.454C32.0419 233.611 32.1056 233.83 32.0102 233.936C31.9313 234.023 31.7154 234.026 31.6177 234.142C31.4737 234.311 31.6615 234.447 31.6068 234.565C31.5903 234.614 31.0305 235.334 30.9905 235.366C30.7107 235.632 30.4853 235.389 30.2394 235.555C29.5543 236.012 29.0078 236.732 28.3985 237.241C28.1254 237.468 27.8057 237.632 27.4769 237.745C27.5388 236.654 26.214 236.514 27.2092 237.661C26.7912 237.642 26.7064 238.132 26.3543 238.223C26.1265 238.28 25.9018 238.15 25.6032 238.282C25.0757 238.514 24.6387 239.334 24.1668 238.303C23.5813 238.71 22.9305 238.447 22.9082 239.513C22.744 239.625 22.1858 239.129 21.9825 239.085C21.7837 239.06 20.3677 239.017 20.141 239.016C19.9112 239.03 19.5187 239.053 19.3314 239.166C19.2556 239.211 19.1929 239.362 19.1241 239.502C18.9829 239.793 18.8032 240.043 18.4885 239.153C17.994 239.286 17.8063 239.253 17.3487 239.097C17.2649 239.068 17.2616 238.865 17.213 238.865C17.1128 238.864 16.9358 239.011 16.7548 239.025C16.4575 239.047 16.318 238.605 16.304 239.266C16.0978 239.368 15.8894 239.467 15.6788 239.565C15.6215 239.432 15.5639 239.299 15.5085 239.165C15.3876 239.296 15.2649 239.426 15.1404 239.556C15.3817 238.608 14.5743 239.095 14.7348 239.675C14.3675 239.433 14.0188 239.179 13.6754 238.913C13.9431 237.824 12.8869 238.629 12.8076 239.24C12.7634 239.23 12.7193 239.22 12.6752 239.21C12.3639 238.834 11.945 238.989 11.5407 238.665C11.1385 238.337 11.2194 238.24 11.252 237.695C11.1395 237.691 11.0267 237.686 10.9124 237.679C9.85279 238.858 10.8578 236.539 9.53202 237.208C9.61889 236.238 8.75447 236.368 8.15476 236.363C8.08579 236.363 7.99535 236.521 7.89624 236.531C7.65256 236.553 7.33838 236.092 7.03888 236.601C6.97394 236.361 6.91733 236.123 6.86501 235.883C6.68338 235.893 6.50059 235.9 6.31665 235.904C6.20943 236.055 6.10223 236.207 5.99505 236.359C6.11396 235.673 5.59365 235.586 5.50626 235.321C5.48936 235.268 5.6439 235.062 5.57974 234.919C5.50519 234.75 5.22467 234.611 5.1317 234.417C4.88107 234.577 4.62729 234.734 4.37039 234.887C3.98741 234.742 4.43168 234.11 4.32996 233.922C4.30883 233.892 3.7986 233.415 3.76415 233.393C3.47066 233.239 3.00401 233.732 2.54741 232.884C2.46841 232.731 2.57796 232.492 2.50273 232.363C2.36741 232.145 1.51285 231.697 1.0594 231.843C1.41051 231.263 0.817427 230.54 0.886018 230.214C0.906712 230.118 1.2536 229.969 1.25016 229.716C1.24691 229.515 0.806731 229.116 0.795446 228.853C0.783512 228.578 1.0772 228.418 1.07524 228.3C1.07372 228.189 0.800819 228.137 0.775945 227.985C0.702533 227.506 1.07453 227.041 1.06348 226.682C1.06331 226.676 1.06306 226.671 1.06274 226.665C1.06274 226.665 1.06274 226.665 1.06274 226.665C1.03286 226.157 0.293565 225.679 5.15412e-06 225.165C0.0595492 225.049 0.234156 224.949 0.249908 224.826C0.440048 223.301 1.14738 221.704 1.99813 220.541C2.38548 219.95 4.14889 219.306 2.53526 218.623C2.43425 218.224 4.08379 217.402 4.31607 217.227C4.54378 217.021 4.52231 216.633 4.70657 216.467C5.26502 215.971 5.7995 215.824 6.38338 215.116C6.53601 214.932 6.54962 214.508 6.6717 214.438C6.81791 214.355 7.15236 214.549 7.34372 214.463C7.80076 214.247 8.58007 213.726 9.04123 213.587C9.12575 213.561 9.2795 213.812 9.42999 213.845C10.0105 213.976 10.4787 213.762 10.0413 212.941C10.8145 213.206 11.1744 212.584 11.7235 212.397C12.8725 211.98 15.0518 211.812 16.0438 211.396C16.6713 211.125 16.6344 210.74 17.6355 211.054C17.6501 211.059 17.6647 211.063 17.6793 211.068C17.8863 211.138 18.0936 211.229 18.3377 211.314C18.9595 211.532 19.4724 212.235 19.964 211.467C20.6195 211.737 21.1692 211.672 21.5752 212.416C21.6505 212.265 21.7269 212.115 21.8044 211.966C21.8852 211.977 21.9659 211.987 22.0465 211.998C22.0506 212.154 22.0548 212.309 22.0582 212.464C22.613 212.601 23.441 212.169 23.9264 212.317C24.7443 212.528 26.6875 213.527 27.2969 214.063C27.6278 214.335 27.7689 214.096 27.7269 214.727C27.824 214.733 27.9211 214.741 28.0194 214.75C28.1255 214.666 28.2323 214.583 28.3396 214.502C28.8058 214.768 29.2442 215.277 29.6558 215.572C30.4097 216.086 31.6618 216.803 32.144 217.671C32.2677 217.885 32.2955 218.253 32.4394 218.43C32.6458 218.688 32.9609 218.53 33.2104 218.889C33.6525 219.51 33.9604 220.927 34.2 221.557C34.2761 221.745 34.4066 221.796 34.4597 221.929C34.6791 222.487 34.7761 222.967 34.9967 223.514C34.816 224.179 34.4907 224.159 34.1971 224.376C33.9728 224.543 33.4745 224.966 33.2834 225.022C33.1487 225.064 32.9518 224.943 32.8044 225.001C32.5847 224.446 32.6527 224.222 32.7546 223.715C32.489 222.884 32.0847 222.11 31.5767 221.411C31.6267 221.29 31.6754 221.165 31.7231 221.037C31.7233 221.037 31.7235 221.037 31.7237 221.037C31.633 220.684 31.2945 220.737 31.1244 220.643C29.5606 219.688 27.019 217.628 25.1286 216.965C24.7363 216.8 23.3608 216.701 23.1412 216.399C23.0842 216.316 23.1214 216.06 23.0439 216.034C22.3002 216.05 21.5628 216.121 20.842 216.241C19.9155 215.904 18.9039 215.963 17.9372 216.144C17.4309 216.238 16.9372 216.361 16.4517 216.467C12.6028 217.298 9.19701 219.384 7.17338 221.98C6.7709 222.489 6.61554 223.279 6.25564 223.736C6.10602 223.925 5.54515 223.846 5.83893 224.283C5.69612 224.242 5.55324 224.201 5.41029 224.16C5.4968 224.499 5.7838 224.75 5.76378 225.048C5.73747 225.303 5.70783 225.957 5.66236 226.179C5.63559 226.295 5.35607 226.258 5.36128 226.371C5.36268 226.393 5.36945 226.419 5.38044 226.446C5.38044 226.446 5.38044 226.446 5.38044 226.446C5.46275 226.66 5.79838 226.957 5.83784 227.168C5.87262 227.385 5.6594 227.848 5.76338 228.014C6.12604 228.612 6.84413 229 7.1299 229.639C7.20693 229.817 7.08424 230.244 7.13513 230.291C7.23046 230.377 7.51917 230.183 7.60458 230.216C8.02787 230.382 8.20339 231.144 8.53679 231.447C9.59018 232.43 11.0647 233.1 12.4725 233.696C13.3615 234.092 14.9579 234.446 15.8544 234.805C16.0476 234.885 15.9595 235.217 16.1305 235.239C16.3202 235.263 16.4419 235.046 16.5309 235.038C17.0954 234.989 18.2454 234.863 18.8946 234.985C18.9609 234.998 19.022 235.014 19.0768 235.034C19.1898 235.075 19.2881 235.324 19.3554 235.321C19.3896 235.32 19.4528 235.146 19.5562 235.124C20.4732 234.927 21.1552 234.957 22.0719 234.856C23.8371 234.652 25.6807 233.766 27.3426 233.007C27.7064 232.843 28.1613 233.013 28.209 232.977C28.311 232.901 28.2263 232.649 28.3957 232.461C28.9599 231.852 29.9907 231.337 30.4374 230.684C30.6628 230.367 30.7746 229.812 30.9445 229.499C31.0881 229.253 31.5551 228.735 31.5153 228.574C31.4944 228.479 31.3177 228.361 31.3397 228.275ZM25.1978 238.177C25.0935 237.662 24.5727 238.318 24.9052 238.495C24.9804 238.535 25.2262 238.311 25.1978 238.177ZM1.82419 223.181C1.6331 223.131 1.44191 223.082 1.2506 223.033C1.29969 223.155 1.3507 223.276 1.40377 223.395C1.53328 223.37 1.66271 223.348 1.79202 223.327C1.80241 223.278 1.81315 223.229 1.82419 223.181Z" fill="black"/>
</svg>
