<svg width="73" height="297" viewBox="0 0 73 297" fill="none" xmlns="http://www.w3.org/2000/svg">
<path d="M22.6297 256.455C22.6403 256.866 22.5126 257.446 22.5031 257.933C22.4672 259.97 22.4069 260.728 22.4342 262.579C22.4419 262.99 22.4618 263.518 22.4927 264.124L22.4818 264.024C22.797 267.342 24.6367 272.995 24.0813 273.185C24.0813 273.185 24.0813 273.185 24.0813 273.185C24.0813 273.185 24.0813 273.185 24.0813 273.185C24.0813 273.185 24.0813 273.185 24.0813 273.185C24.075 273.187 24.0684 273.188 24.0614 273.189C23.9305 273.2 23.5868 272.573 23.4151 272.518C23.2435 272.463 22.3619 272.827 21.9982 271.889C21.4519 270.537 20.7565 267.059 20.6227 266.282C20.5034 265.757 20.2851 265.12 20.1605 264.437C20.1559 264.412 20.1515 264.387 20.1471 264.363C20.1454 264.349 20.1406 264.31 20.1398 264.296C19.9144 262.158 19.9229 261.016 19.5831 259.061C19.7012 258.264 19.8329 257.47 19.9784 256.68C19.9022 255.647 20.1328 254.086 20.1485 253.461C20.1587 252.945 20.0506 252.639 20.0724 252.101C20.0965 251.498 20.2846 250.587 20.3629 249.492C20.4989 247.711 20.225 247.342 20.3192 246.273C20.3243 246.242 20.3425 246.151 20.3514 246.121C20.3528 246.115 20.3543 246.109 20.3558 246.102C20.6017 245.005 21.2603 243.386 21.6035 241.979C21.6247 241.794 21.6458 241.612 21.6681 241.428C21.5444 241.522 21.4218 241.615 21.299 241.711C21.4919 241.006 21.7648 240.766 22.0001 240.136C22.2815 239.393 22.2752 238.951 22.4829 238.451C22.6541 238.041 23.0194 237.551 23.2613 237.022C23.6175 236.255 23.3571 236.334 23.5346 235.903C23.547 235.719 25.2763 232.701 25.468 232.564C26.4089 231.354 26.7301 231.453 27.62 230.623C28.5094 229.825 29.4879 229.089 30.5278 228.471C32.1721 227.479 33.7141 226.394 35.0943 225.361C36.0489 224.649 37.0345 223.926 37.9498 223.214C37.0387 225.043 40.5926 222.836 38.5924 222.885C39.6752 222.158 40.0706 221.264 40.8621 220.41C41.366 219.852 41.8401 219.549 42.3897 218.647C43.4119 216.995 43.2378 215.109 44.2255 214.73C44.2392 214.307 44.2402 213.901 44.2214 213.508C44.2875 211.175 44.4549 210.162 43.632 209.632C43.5395 209.177 43.6732 207.726 43.4657 207.086C43.4624 206.486 41.0433 202.1 40.4549 201.453C40.1056 200.969 39.5576 200.252 39.0609 199.686C38.8638 199.461 38.6765 199.258 38.5228 199.108C37.8692 198.47 36.6958 198.592 36.5476 196.617C35.2659 195.215 34.8637 194.682 33.843 193.238C33.6581 192.976 33.7693 192.838 33.6496 192.693C33.4075 192.4 32.8869 191.974 32.4401 191.459C31.6984 190.605 31.5792 189.878 31.2194 190.333C30.6678 189.816 30.1228 189.308 29.5734 188.796C29.4929 188.526 29.4121 188.255 29.3312 187.983C28.9832 187.751 28.6385 187.524 28.29 187.293C29.2332 187.126 27.0725 185.276 27.2766 186.282C26.4927 185.061 25.7117 183.835 24.9369 182.607C25.8169 182.156 23.0278 180.077 22.7897 180.63C22.686 180.501 22.5822 180.372 22.4786 180.243C21.7718 178.957 20.7689 178.055 19.8061 176.566C18.8448 175.073 19.0304 175.147 19.0581 174.439C18.7791 174.127 18.5061 173.822 18.2272 173.508C15.8793 172.563 17.8599 171.537 14.8189 169.15C14.7999 168.68 14.5484 168.122 14.1923 167.557C13.4583 166.396 12.2275 165.13 11.3286 164.162C11.1714 163.992 11.0381 164.081 10.822 163.864C10.2897 163.329 9.3822 161.662 8.98627 162.002C8.73718 161.376 8.49446 160.749 8.25226 160.11C7.8769 159.717 7.50147 159.316 7.12522 158.904C6.98792 158.994 6.85064 159.084 6.71337 159.174C6.59064 157.954 5.51796 156.58 5.21959 155.751C5.15971 155.585 5.3445 155.452 5.14616 154.947C4.91815 154.367 4.33754 153.35 4.10449 152.628C3.75299 152.462 3.40135 152.286 3.05075 152.1C2.40473 150.844 2.91047 150.145 2.74223 149.356C2.70413 149.247 2.27175 147.529 2.17806 146.764C2.1514 146.595 2.13251 146.481 2.12634 146.456C1.87791 145.384 1.31668 145.772 1.08354 142.583C1.04529 142.015 1.20142 141.535 1.16137 141.021C1.07913 140.12 0.430392 137.386 2.14577e-06 137.173C0.462102 136.027 0.228858 132.985 0.454566 132.076C0.517638 131.804 0.860677 131.761 0.995969 130.933C1.09783 130.268 1.02544 128.475 1.24041 127.61C1.45954 126.694 1.82933 126.433 1.94512 126.034C2.05826 125.654 1.91957 125.24 2.07791 124.712C2.5774 123.067 3.56259 121.78 4.22805 120.612C4.5156 120.106 4.76163 119.597 4.99653 119.087C5.4794 117.985 5.76781 116.836 6.22121 115.827C6.4826 115.545 6.82816 115.333 7.06964 115.012C10.016 110.985 14.2703 106.98 18.3452 104.161C19.2084 103.545 20.7812 102.695 22.0311 101.95C23.4757 101.086 24.4687 100.286 23.2962 99.9772C23.7876 99.289 28.8845 96.7488 29.7904 96.1754C30.6955 95.597 31.2432 94.8789 31.9484 94.4138C34.0728 93.013 35.6945 92.2209 38.1379 90.3064C38.7682 89.8113 39.2848 89.0401 39.6826 88.7836C40.1585 88.4779 40.8637 88.4332 41.4911 88.0461C42.9841 87.124 45.643 85.2142 47.0485 84.3261C47.3094 84.1627 47.5753 84.3555 47.9845 84.1921C48.5449 83.9654 49.0946 83.6838 49.5279 83.3929C50.3788 82.8212 50.8419 82.1991 50.2882 81.7979C52.3838 80.9967 53.6954 79.4014 55.2089 78.1674C57.2515 76.5196 60.0693 74.1597 61.8626 71.4622C62.7769 70.0974 63.6025 68.2649 63.9895 67.0533C64.6277 64.9352 64.251 64.8408 65.594 61.9881C65.6127 61.9462 65.6314 61.9043 65.6502 61.8625C65.9155 61.2694 66.1905 60.6727 66.4491 59.9503C66.899 58.7025 67.4927 57.5281 67.3997 56.5338C67.3567 55.9657 67.2096 55.4741 66.8905 54.981C67.0597 52.6312 66.7225 50.8371 67.3151 49.0209C67.0883 48.8477 66.863 48.6917 66.6341 48.5196C66.586 48.2392 66.5391 47.9821 66.4848 47.7017C66.6571 47.5816 66.8289 47.4612 67.0001 47.3403C66.6982 45.3333 65.2529 43.2189 64.6081 41.9177C64.3008 41.256 63.9415 40.6009 63.1214 39.2135C61.8918 36.6312 58.4737 33.5142 57.0106 32.0714C55.9299 31.0233 55.636 31.2626 55.4205 30.1337C55.1129 29.9587 54.831 29.8044 54.5245 29.6325C54.2544 29.6293 53.9988 29.6367 53.733 29.6358C53.118 29.1627 52.4971 28.6402 51.8463 28.093C50.8666 27.2674 49.8731 26.4162 48.9693 25.7445C46.2279 23.7181 41.8831 20.9673 39.2755 18.7149C38.6206 18.1502 37.9116 17.2887 37.2297 16.7924C36.2383 16.0701 35.7486 16.2488 34.4978 15.3236C32.347 13.7194 28.5847 10.3795 26.5098 8.92074C25.8996 8.4869 25.5466 8.38597 25.1144 8.08529C24.7212 7.81243 24.3311 7.53836 23.9717 7.28553C22.6627 6.36488 21.4982 5.54942 20.1092 4.7052C18.4491 3.18073 18.7713 3.02989 18.3696 2.37322C18.0712 1.86926 16.9473 0.593137 16.621 0.382884C16.562 0.296722 16.6805 0.242048 16.8341 0.199539C16.9855 0.157064 17.1406 0.121239 17.0174 4.35114e-06C19.9894 1.16958 20.5861 1.90993 22.3737 3.28048C23.3834 3.90766 24.3938 4.54495 25.4026 5.1858C27.8026 6.71058 30.2083 8.2638 32.5977 9.81634C32.8323 10.1326 33.0539 10.4435 33.2827 10.7629C33.2825 10.7632 33.2823 10.7634 33.2822 10.7637C34.4784 11.7586 35.2349 11.8265 35.9813 12.2168C40.78 14.735 48.1442 19.6666 54.5352 24.3717C57.6999 26.6955 60.5996 29.0173 62.841 31.0536C63.7773 31.8908 66.3564 34.1227 67.684 36.4561C68.2542 37.3335 68.9254 38.4754 69.031 38.9474C69.1315 39.3215 68.8844 39.5601 69.0463 39.9191C70.7642 43.0007 71.6468 46.3379 72.2728 49.6328C72.3794 51.9003 72.4464 54.1554 72.4872 56.4286C72.5143 58.9993 72.0284 61.3395 71.4171 63.6023C70.7651 65.9551 69.9291 68.2055 68.9161 70.3691C68.2123 71.8442 67.5113 73.2495 66.4849 74.7614C62.6683 80.3189 57.2949 83.9146 52.3964 87.4999C43.9204 93.4559 35.3116 98.875 26.8319 104.379C26.1282 104.836 25.3929 105.335 24.6482 105.852C22.3821 107.422 20.0862 109.272 18.1967 110.753C17.16 111.571 16.3788 111.557 15.4169 113.066C15.3034 112.979 15.1897 112.893 15.0759 112.807C14.1253 114.02 13.7132 114.947 12.6488 116.276C11.7355 117.372 9.47822 120.513 8.68305 121.59C8.67604 121.599 8.66913 121.608 8.66231 121.617C8.32396 122.054 8.22499 121.747 7.93463 122.215C7.40902 123.032 6.88361 125.047 6.53393 126.344C6.16914 127.496 5.51422 129.55 5.4658 130.551C5.22624 134.12 5.84773 138.101 6.11753 142.077C6.18956 143.176 6.03129 144.635 6.08092 144.981C6.17338 145.625 6.47987 145.803 6.58953 146.209C6.59453 146.226 6.59908 146.243 6.60314 146.261C6.96295 148.163 7.77568 151.305 8.82537 153.249C10.9782 157.37 13.9892 161.482 16.9333 165.544C18.4683 167.647 20.0452 169.737 21.582 171.774C24.4046 175.528 29.3054 181.634 31.8773 185.158C32.4297 185.917 32.0485 185.91 32.5416 186.523C33.0915 187.206 33.5388 187.447 33.8084 187.757C35.6692 189.89 39.742 194.641 41.2613 196.86C41.4472 197.13 41.5378 197.396 41.6257 197.613C41.6838 197.748 41.7396 197.866 41.8121 197.958C41.9142 198.088 42.2377 198.261 42.561 198.663C45.2149 202.155 47.3184 204.993 47.7252 209.984C47.7886 211.277 47.5406 212.618 47.5447 213.436C47.3584 222.45 39.006 227.615 32.7942 231.006C32.5615 231.128 32.3149 231.249 32.1002 231.346C30.9447 231.862 30.1256 232.242 29.967 232.371C29.5722 232.714 29.4617 233.087 28.7927 233.886C26.5256 236.517 24.4167 241.115 23.4437 244.552C23.2469 245.226 23.0601 246.013 22.8829 246.829L22.9193 246.659C22.8101 247.894 22.753 249.178 22.679 250.212C22.5581 251.583 22.2793 254.842 22.3758 255.459C22.4251 255.835 22.6172 256.008 22.6297 256.455ZM43.11 217.77C43.2601 217.97 43.5143 217.502 43.6094 217.069C43.7075 216.633 43.659 216.26 43.4155 216.61C43.3163 216.767 43.0422 217.667 43.11 217.77ZM12.2292 110.659C12.0768 110.546 11.9243 110.434 11.7715 110.322C11.5792 110.636 11.3871 110.956 11.2034 111.272C11.422 111.2 11.6414 111.129 11.8617 111.06C11.9843 110.924 12.1052 110.793 12.2292 110.659Z" fill="black"/>
<path d="M36.1998 282.866C36.2116 282.786 36.3799 282.714 36.4228 282.624C36.6016 282.251 36.7313 282.122 36.8749 281.762C37.1319 281.228 37.0891 279.56 37.7005 279.426C37.7005 279.426 37.7005 279.426 37.7005 279.426C37.7005 279.426 37.7005 279.426 37.7006 279.426C37.7071 279.425 37.7137 279.424 37.7205 279.423C37.8478 279.407 38.0065 279.546 38.1562 279.55C38.3059 279.554 39.2482 279.395 39.3536 279.654C39.512 280.033 39.3193 280.973 39.3175 281.172C39.3265 281.312 39.423 281.492 39.4339 281.676C39.4651 282.272 39.3487 282.554 39.5462 283.153C39.3592 283.33 39.1628 283.497 38.9583 283.653C38.9652 283.939 38.6394 284.262 38.596 284.415C38.5615 284.544 38.6578 284.668 38.6141 284.804C38.5657 284.956 38.3448 285.118 38.2476 285.387C38.0868 285.822 38.3661 286.077 38.2774 286.359C38.1838 286.654 37.7821 286.944 37.6899 287.342C37.6995 287.407 37.7083 287.473 37.7176 287.539C37.8149 287.567 37.9129 287.594 38.0106 287.62C37.943 287.815 37.7364 287.767 37.6341 287.913C37.5134 288.085 37.6019 288.295 37.5194 288.412C37.4511 288.508 37.237 288.535 37.1533 288.662C37.0298 288.846 37.232 288.959 37.1913 289.083C37.1806 289.133 36.7076 289.913 36.6716 289.95C36.4243 290.246 36.1724 290.031 35.9473 290.224C35.3196 290.758 34.8598 291.535 34.3134 292.111C34.0683 292.369 33.7697 292.568 33.4561 292.718C33.3916 291.628 32.0596 291.642 33.1806 292.666C32.7632 292.696 32.7355 293.192 32.3963 293.323C32.1766 293.406 31.9384 293.303 31.657 293.468C31.1598 293.759 30.8205 294.625 30.2325 293.655C29.6981 294.127 29.0211 293.94 29.1222 295.003C28.9719 295.133 28.3603 294.704 28.1532 294.684C27.9529 294.683 26.5413 294.803 26.316 294.828C26.0894 294.868 25.7022 294.937 25.5291 295.07C25.4591 295.124 25.4143 295.281 25.3621 295.428C25.2555 295.734 25.1058 296.003 24.6904 295.155C24.2145 295.344 24.0243 295.333 23.5518 295.231C23.4652 295.212 23.4385 295.011 23.3901 295.016C23.2905 295.026 23.1317 295.193 22.9535 295.228C22.6607 295.284 22.4712 294.861 22.5336 295.519C22.3405 295.644 22.145 295.767 21.9471 295.888C21.8748 295.763 21.8022 295.637 21.7317 295.511C21.6268 295.655 21.5199 295.799 21.4113 295.942C21.5415 294.972 20.7957 295.549 21.0221 296.107C20.6293 295.908 20.2536 295.697 19.8818 295.472C20.022 294.36 19.0658 295.281 19.0575 295.897C19.0125 295.892 18.9675 295.887 18.9226 295.882C18.57 295.546 18.1717 295.747 17.7327 295.472C17.2954 295.193 17.3645 295.087 17.334 294.542C17.2218 294.551 17.1091 294.559 16.9949 294.566C16.0784 295.859 16.8089 293.439 15.5693 294.257C15.5436 293.283 14.6999 293.512 14.1036 293.576C14.0351 293.584 13.9636 293.752 13.8662 293.773C13.6268 293.824 13.2615 293.402 13.0227 293.942C12.9305 293.711 12.8468 293.481 12.7671 293.248C12.5878 293.279 12.4071 293.307 12.2248 293.332C12.1358 293.496 12.0469 293.659 11.9579 293.822C11.9969 293.127 11.47 293.101 11.3526 292.847C11.3297 292.796 11.4594 292.574 11.3791 292.439C11.2856 292.28 10.9909 292.174 10.8762 291.993C10.6457 292.18 10.4117 292.365 10.1742 292.547C9.77708 292.448 10.1454 291.769 10.0226 291.593C9.99815 291.566 9.4363 291.151 9.39954 291.133C9.09023 291.014 8.68361 291.558 8.13216 290.768C8.03601 290.625 8.11728 290.375 8.02763 290.256C7.86802 290.054 6.96746 289.708 6.53392 289.906C6.81577 289.289 6.14312 288.639 6.17363 288.308C6.18318 288.21 6.51046 288.022 6.47787 287.771C6.45144 287.572 5.96819 287.227 5.9266 286.967C5.88296 286.694 6.15619 286.501 6.14065 286.385C6.12632 286.275 5.84924 286.254 5.807 286.106C5.67873 285.639 5.99458 285.134 5.94218 284.779C5.94137 284.773 5.94049 284.768 5.93952 284.762C5.93952 284.762 5.93952 284.762 5.93952 284.762C5.85115 284.261 5.06162 283.871 4.71067 283.395C4.75639 283.272 4.91829 283.153 4.91984 283.03C4.93262 281.493 5.45084 279.825 6.16168 278.572C6.47814 277.939 8.1554 277.096 6.47371 276.604C6.3274 276.22 7.87092 275.212 8.08143 275.011C8.28388 274.781 8.21782 274.398 8.38166 274.212C8.87913 273.655 9.39302 273.447 9.89128 272.676C10.0217 272.476 9.98621 272.053 10.0994 271.969C10.235 271.87 10.5896 272.024 10.7698 271.916C11.1989 271.65 11.9128 271.042 12.3548 270.85C12.4358 270.815 12.6175 271.046 12.7708 271.062C13.3625 271.125 13.8028 270.858 13.2736 270.093C14.0722 270.267 14.3579 269.608 14.8818 269.359C15.975 268.812 18.1203 268.393 19.0577 267.866C19.6497 267.524 19.5686 267.146 20.5993 267.342C20.6143 267.345 20.6293 267.348 20.6443 267.351C20.858 267.397 21.0746 267.464 21.3267 267.52C21.9695 267.664 22.5601 268.303 22.9598 267.484C23.6421 267.676 24.1806 267.548 24.6698 268.24C24.7272 268.082 24.7858 267.924 24.8455 267.767C24.9271 267.768 25.0084 267.769 25.0897 267.771C25.1117 267.925 25.1338 268.078 25.1551 268.232C25.7221 268.304 26.4947 267.78 26.9939 267.871C27.8306 267.986 29.8762 268.754 30.5435 269.216C30.9035 269.448 31.0161 269.194 31.0472 269.826C31.1443 269.821 31.2416 269.817 31.3404 269.815C31.4361 269.719 31.5326 269.624 31.6297 269.531C32.1235 269.742 32.6178 270.197 33.0606 270.442C33.8689 270.866 35.1954 271.434 35.7745 272.24C35.9223 272.439 35.9923 272.801 36.1557 272.96C36.3905 273.193 36.6851 272.999 36.9745 273.326C37.4853 273.893 37.9548 275.265 38.2654 275.862C38.3627 276.041 38.4984 276.076 38.5664 276.202C38.8487 276.731 39.0006 277.197 39.2828 277.714C39.1801 278.396 38.8547 278.414 38.5881 278.663C38.3845 278.855 37.9384 279.332 37.755 279.41C37.6261 279.467 37.4165 279.37 37.2768 279.444C36.9945 278.919 37.0361 278.688 37.0789 278.173C36.7192 277.378 36.2281 276.656 35.6429 276.021C35.6785 275.894 35.7125 275.764 35.7452 275.632C35.7454 275.632 35.7456 275.632 35.7457 275.632C35.6149 275.292 35.2847 275.383 35.1049 275.31C33.4414 274.542 30.6789 272.789 28.7246 272.349C28.3158 272.23 26.9381 272.291 26.6852 272.016C26.6189 271.94 26.6264 271.681 26.5464 271.664C25.8095 271.766 25.0852 271.922 24.3831 272.124C23.4239 271.897 22.4259 272.072 21.4865 272.364C20.9944 272.515 20.5183 272.694 20.0482 272.855C16.321 274.125 13.1789 276.591 11.4685 279.403C11.1273 279.955 11.0642 280.757 10.7596 281.254C10.6328 281.459 10.0665 281.444 10.4088 281.845C10.2622 281.82 10.1155 281.796 9.96882 281.772C10.0938 282.099 10.4079 282.315 10.4224 282.613C10.4257 282.87 10.4718 283.523 10.4523 283.749C10.439 283.866 10.1571 283.862 10.1753 283.974C10.1793 283.996 10.1889 284.02 10.203 284.046C10.203 284.046 10.203 284.046 10.203 284.046C10.3095 284.249 10.6771 284.505 10.7408 284.711C10.8003 284.922 10.6419 285.406 10.7644 285.56C11.1937 286.112 11.9518 286.414 12.3094 287.015C12.4064 287.183 12.3339 287.622 12.3899 287.663C12.4945 287.738 12.7588 287.511 12.8475 287.534C13.2872 287.651 13.5495 288.387 13.9156 288.649C15.0755 289.504 16.6174 289.999 18.0846 290.429C19.0134 290.72 20.64 290.887 21.572 291.14C21.7731 291.197 21.7239 291.537 21.8963 291.539C22.0875 291.541 22.1834 291.312 22.2708 291.293C22.8259 291.18 23.9537 290.922 24.6127 290.968C24.68 290.973 24.7425 290.982 24.7992 290.995C24.9162 291.023 25.0427 291.259 25.1092 291.248C25.1429 291.243 25.1857 291.063 25.2859 291.029C26.174 290.728 26.8549 290.679 27.7538 290.473C29.4836 290.066 31.2125 288.973 32.7758 288.028C33.1182 287.823 33.5897 287.939 33.6329 287.898C33.7255 287.811 33.6123 287.57 33.7588 287.364C34.2489 286.694 35.2134 286.063 35.5817 285.363C35.769 285.022 35.816 284.458 35.9486 284.127C36.0629 283.867 36.467 283.298 36.4089 283.143C36.3772 283.051 36.1879 282.954 36.1998 282.866ZM31.2422 293.411C31.0792 292.912 30.6376 293.623 30.9883 293.761C31.0676 293.791 31.2859 293.541 31.2422 293.411ZM6.29358 281.213C6.09803 281.186 5.90242 281.159 5.70674 281.132C5.76962 281.248 5.83427 281.363 5.90073 281.475C6.02653 281.435 6.15247 281.398 6.27851 281.362C6.28319 281.312 6.28822 281.263 6.29358 281.213Z" fill="black"/>
</svg>
