<svg width="46" height="47" viewBox="0 0 46 47" fill="none" xmlns="http://www.w3.org/2000/svg">
<path d="M24.0446 16.0223C23.8631 15.8361 23.2441 14.955 22.6383 13.4869C21.2489 10.1201 21.5605 7.14486 22.0951 5.55426C23.2792 2.03136 26.7497 0.892287 27.6238 0.543839C28.8691 0.0474389 29.2121 3.84175 29.2453 8.11728C28.422 11.7066 26.8594 14.2804 25.676 15.3173C25.3517 15.5389 24.9359 15.801 24.5074 16.0709" stroke="black" stroke-linecap="round"/>
<path d="M24.5073 15.7163C24.5073 14.0339 24.6396 10.1759 25.2427 9.15896C25.428 8.95797 25.6183 8.84591 25.8997 8.77864C26.1811 8.71137 26.5477 8.69228 26.9254 8.67261" stroke="black" stroke-linecap="round"/>
<path d="M23.1387 15.6072C22.9864 15.3601 21.5261 13.6165 20.0859 12.2543C18.5312 10.7839 14.7094 10.1897 10.556 10.1373C8.97488 10.1174 8.07549 10.8756 5.65786 13.437C2.96663 16.2882 1.84701 18.8968 1.47459 20.1167C0.758274 22.463 0.511695 24.8345 0.500028 25.9126C0.491617 26.6898 2.37826 24.7591 4.98013 23.9674C7.14002 23.3102 9.1297 23.7317 10.2145 24.1566C12.2271 24.9448 12.5847 26.8586 12.8853 28.3431C13.24 30.0946 11.8345 31.529 10.3626 33.1652C9.31615 34.3285 7.66714 34.6314 5.23309 34.7035C3.53375 34.7539 2.74372 33.7372 2.42989 33.781C-0.148917 34.141 5.10699 40.9223 6.89259 43.252C8.01188 44.7124 9.54112 45.2684 11.2981 45.8031C12.1722 46.0691 13.4823 46.0235 14.8985 46.0042C15.8041 45.9918 18.4374 45.0749 22.8505 43.6896C26.6924 42.4836 29.6853 42.5273 31.8974 42.7286C36.1651 43.1169 37.6621 43.8215 39.3979 43.292C41.462 42.6622 43.1705 39.2321 44.532 35.7217C45.1002 34.2567 44.7426 33.1178 44.5431 32.6062C44.4468 32.3593 44.2154 32.2078 43.991 32.1058C42.3649 31.3666 38.6041 32.5581 37.0913 32.2277C35.8762 31.9624 34.9143 30.1823 34.2486 29.0378C33.4905 27.7344 33.7509 24.9587 33.9901 23.6985C34.1836 22.6795 35.1158 22.0644 36.2866 21.3134C36.994 20.8596 39.4245 20.8677 42.2998 20.6096C43.2785 20.5218 43.2012 20.007 43.0432 19.5361C42.386 17.5774 40.4719 15.5655 38.1459 13.4692C35.3966 11.7217 33.7273 11.1124 32.0988 10.912C31.0229 10.8356 29.4402 10.8104 27.7652 10.8474" stroke="black" stroke-linecap="round"/>
</svg>
