<svg width="46" height="48" viewBox="0 0 46 48" fill="none" xmlns="http://www.w3.org/2000/svg">
<path d="M22.0594 15.1954C20.1561 14.482 15.6736 12.874 10.5987 12.748C8.38127 12.693 7.12815 13.824 5.2819 15.3331C4.56817 15.9165 3.96445 16.9667 3.08848 18.706C1.91969 21.0267 1.36333 24.5036 0.860367 28.9827C-0.169673 38.1554 1.2361 40.0101 2.22905 41.6683C3.52393 43.8308 6.45323 45.4769 8.55294 46.4054C11.3843 47.6575 15.0954 46.9235 17.7802 45.7748C21.0552 44.3736 23.2071 42.6317 24.2109 42.4723C26.3322 42.1353 29.8628 43.9951 33.5102 45.1032C36.2348 45.931 37.7884 44.8296 40.2952 43.404C42.3994 42.2073 43.5659 39.7907 44.5579 37.255C45.3096 35.3335 45.337 31.3065 45.2801 26.7549C45.2487 24.2379 44.3508 22.2633 43.4345 20.1483C41.7307 16.2154 35.7791 12.7328 33.8149 11.7106C32.1533 10.8459 27.7321 11.1824 24.3908 11.8521C23.3728 12.3309 22.5227 12.8227 21.8767 13.2733C21.5786 13.4917 21.3407 13.6894 20.7801 14.27" stroke="black" stroke-linecap="round"/>
<path d="M20.0374 13.6539C20.0374 13.6403 19.9574 11.354 19.8763 7.65574C19.8124 4.74213 21.1132 3.11297 22.138 2.08917C22.6306 1.597 23.8226 1.08137 25.1641 0.573826C25.6495 0.39018 25.8073 0.574457 26.0272 0.848873C27.0669 2.14618 27.4102 3.26538 27.6442 4.69031C27.8409 5.88779 27.6555 6.97419 27.4483 7.81755C27.0448 8.93427 25.9592 10.7974 24.3745 12.9562C23.6175 13.8947 22.9564 14.5147 21.9651 15.3715" stroke="black" stroke-linecap="round"/>
<path d="M23.8905 9.45459C23.7866 9.50905 23.316 9.88066 22.7111 10.6194C22.4363 11.071 22.1347 11.8666 21.7918 13.1437C21.6179 13.867 21.4443 14.7429 21.2637 15.7095" stroke="black" stroke-linecap="round"/>
</svg>
