<svg width="35" height="168" viewBox="0 0 35 168" fill="none" xmlns="http://www.w3.org/2000/svg">
<path d="M20.1893 134.416C20.2025 134.584 20.074 134.821 20.0589 135.02C19.9936 135.851 19.9015 136.159 19.8272 136.912C19.7215 138.028 19.7116 141.346 19.0438 141.346C19.0437 141.346 19.0437 141.346 19.0437 141.346C19.0437 141.346 19.0437 141.346 19.0437 141.346C19.0371 141.346 19.0304 141.346 19.0236 141.345C18.8955 141.334 18.7585 141.051 18.6113 141.009C18.4639 140.968 17.5156 140.999 17.4489 140.598C17.3581 140.017 17.5779 138.621 17.5628 138.311C17.5504 138.099 17.4502 137.838 17.4265 137.566C17.3494 136.691 17.4147 136.234 17.1208 135.445C17.2566 135.129 17.396 134.815 17.539 134.5C17.4631 134.088 17.6528 133.466 17.6403 133.216C17.6293 133.011 17.5067 132.89 17.4983 132.676C17.488 132.434 17.6172 132.07 17.5941 131.632C17.5571 130.918 17.2242 130.784 17.1754 130.355C17.1243 129.909 17.3029 129.219 17.1775 128.648C17.1387 128.576 17.0998 128.504 17.0608 128.432C16.9746 128.482 16.8887 128.531 16.8031 128.581C16.7581 128.294 16.9346 128.174 16.9352 127.91C16.936 127.6 16.7628 127.439 16.7608 127.23C16.7593 127.059 16.8959 126.83 16.8857 126.608C16.8712 126.285 16.6688 126.351 16.6288 126.176C16.6133 126.106 16.4862 124.818 16.4838 124.746C16.4703 124.196 16.759 124.153 16.7843 123.717C16.855 122.501 16.6218 121.242 16.5343 120.107C16.4957 119.605 16.5184 119.075 16.5755 118.577C17.3655 119.404 18.0408 117.685 16.7531 118.28C16.9447 117.73 16.6065 117.316 16.6753 116.79C16.7207 116.451 16.9078 116.219 16.9163 115.732C16.9331 114.864 16.4262 113.881 17.401 113.691C17.2681 112.664 17.6692 111.806 16.8076 111.381C16.7761 111.191 17.0502 110.809 17.2427 110.5C17.3184 110.38 17.381 110.271 17.4055 110.189C17.4836 109.915 17.8453 107.802 17.8831 107.456C17.9181 107.106 17.9711 106.503 17.908 106.202C17.8327 105.822 16.8687 105.49 18.053 104.926C18.0104 104.157 18.0602 103.887 18.2443 103.192C18.2776 103.066 18.452 103.066 18.4575 102.992C18.4686 102.838 18.3588 102.564 18.3626 102.286C18.3682 101.833 18.7571 101.607 18.1885 101.608C18.1145 101.303 18.0402 100.991 17.9646 100.688C18.0816 100.593 18.199 100.498 18.3167 100.403C18.2078 100.234 18.0985 100.063 17.9887 99.8923C18.806 100.151 18.3967 98.9893 17.8908 99.3103C18.1024 98.7479 18.3173 98.1845 18.535 97.623C19.4933 97.7879 18.7436 96.3659 18.2027 96.4317C18.2081 96.3657 18.2135 96.2996 18.2189 96.2334C18.5201 95.6719 18.344 95.1318 18.5714 94.4369C18.7992 93.7516 18.8918 93.8245 19.3668 93.651C19.3536 93.4827 19.3403 93.313 19.3268 93.1449C18.1248 92.1696 20.3143 92.5063 19.4517 90.938C20.2965 90.5289 19.9693 89.3215 19.7779 88.5246C19.7559 88.4318 19.5964 88.4165 19.5562 88.2919C19.4595 87.9872 19.7222 87.2509 19.2011 87.234C19.3697 86.9878 19.5392 86.7406 19.7095 86.4924C19.6305 86.271 19.5511 86.0485 19.4709 85.83C19.3072 85.8174 19.1436 85.8047 18.98 85.7921C19.567 85.4145 19.4013 84.7173 19.5584 84.3994C19.5903 84.336 19.8191 84.3408 19.8961 84.1412C19.9874 83.9082 19.9521 83.4549 20.0445 83.1726C19.7983 83.0406 19.5513 82.9103 19.3039 82.7789C19.1993 82.2588 19.8862 82.1324 19.9603 81.8351C19.9736 81.778 19.9926 80.7952 19.9817 80.7392C19.8962 80.2954 19.307 80.369 19.5117 79.1258C19.5486 78.9034 19.7632 78.7371 19.7846 78.534C19.8231 78.1798 19.4276 77.0684 19.0021 76.9501C19.5652 76.5586 19.4148 75.3807 19.5909 75.0508C19.6452 74.9517 19.9924 74.9535 20.0854 74.6425C20.1613 74.3918 19.9231 73.7033 19.9882 73.3845C20.0591 73.0439 20.3598 72.9402 20.3898 72.7866C20.4179 72.6414 20.1886 72.49 20.2015 72.2897C20.2457 71.6636 20.6617 71.1324 20.6977 70.6363C20.7507 69.9212 20.0735 69.2542 19.7864 68.6337C19.8403 68.4866 20.0011 68.3542 20.0105 68.1995C20.0742 67.1906 20.1698 66.1185 20.2822 65.0392C20.3824 64.083 20.4963 63.1158 20.6116 62.2124C20.7233 61.3194 21.8225 59.1476 20.1266 59.6577C19.8465 59.3354 20.6128 57.1076 20.6407 56.6788C20.6681 56.2495 20.3793 55.8934 20.3876 55.5567C20.4132 54.5381 20.6598 53.8287 20.4403 52.5767C20.3827 52.2529 20.0337 51.8947 20.0445 51.7052C20.0584 51.4771 20.4169 51.2455 20.4497 50.9502C20.5252 50.246 20.4556 48.9258 20.5394 48.2507C20.5555 48.1274 20.8658 48.0958 20.9685 47.9225C21.3698 47.2474 21.364 46.4742 20.3711 46.5739C20.9618 45.7097 20.4767 44.8775 20.4716 44.0555C20.4635 42.3231 20.7943 39.1799 20.4222 37.656C20.1873 36.6993 19.7403 36.7041 20.1677 35.3204C20.1739 35.3 20.1803 35.2797 20.1868 35.2593C20.2789 34.97 20.3949 34.6794 20.5017 34.3307C20.7712 33.4624 21.6214 32.6616 20.6585 31.968C20.9533 30.9851 20.8092 30.2112 21.6767 29.4985C21.4799 29.4071 21.2834 29.3158 21.0873 29.2247C21.0879 29.1045 21.0885 28.9845 21.0893 28.8647C21.2815 28.8325 21.4735 28.8003 21.6654 28.7682C21.7521 27.902 21.0318 26.7975 21.0815 26.0614C21.1573 24.8422 21.6497 21.6917 21.9574 20.5445C22.1196 19.9238 21.7581 19.8846 22.53 19.551C22.4857 19.4126 22.4419 19.2772 22.3985 19.138C22.2409 19.0466 22.0841 18.9554 21.9281 18.8646C21.9793 18.0733 22.2926 17.1333 22.3425 16.3934C22.4263 15.0174 22.2113 12.9608 22.5844 11.5877C22.585 11.5852 22.5857 11.5828 22.5863 11.5803C22.6798 11.2229 22.9872 10.8054 23.01 10.4693C23.0443 9.96017 22.6191 9.85961 22.6758 9.21786C22.7824 8.13972 23.4247 6.14768 23.4752 5.12785C23.4933 4.84103 23.3805 4.67359 23.3886 4.47377C23.4235 3.60606 23.5044 2.87279 23.4407 2.03808C23.8223 1.14592 24.1347 1.22516 24.4818 0.954972C24.7486 0.745539 25.2953 0.118595 25.4814 0.0161697C25.6166 -0.0547206 25.8125 0.211573 25.9616 0.117359C26.1781 1.20949 26.088 1.65078 25.8706 2.53367C25.97 4.15054 26.0634 5.78442 26.1508 7.4011C26.0216 7.5453 25.8894 7.69237 25.7544 7.84239C25.7541 7.84238 25.7538 7.84238 25.7535 7.84237C25.6062 8.44341 25.977 8.74038 26.0766 9.06541C26.2865 9.81759 26.4438 10.6725 26.5498 11.6728C26.9435 15.0158 26.5686 19.4276 26.4629 22.1771C26.4401 22.9274 26.7297 25.4389 26.3798 25.9446C26.289 26.0776 25.9591 26.1069 25.9433 26.251C26.1268 27.5522 26.3126 28.8388 26.4952 30.1387C26.1209 31.8701 26.1473 33.6615 26.2077 35.4408C26.2388 36.3629 26.28 37.2948 26.2787 38.2043C26.2682 45.4423 26.2366 52.6142 25.7519 59.7269C25.6587 61.1048 25.8005 62.8593 25.5545 64.2C25.4734 64.6443 25.1152 64.8642 25.1444 65.3148C25.1518 65.4328 25.185 65.5663 25.2552 65.7231C25.1134 65.7228 24.9716 65.7225 24.8298 65.7221C24.9585 66.3799 25.2517 66.8003 25.2334 67.5305C25.2185 68.1414 25.1223 69.7525 25.0287 70.2834C24.9814 70.5595 24.7302 70.4367 24.7121 70.6987C24.6835 71.1493 24.9682 72.112 24.9185 72.7317C24.874 73.2899 24.505 74.2006 24.5127 74.6339C24.5399 76.1778 24.8209 77.8888 24.5559 79.5169C24.482 79.9676 24.109 80.5192 24.1049 80.6645C24.0982 80.9436 24.4001 81.0502 24.4223 81.2391C24.5338 82.1932 24.0254 83.6399 23.9216 84.5617C23.5815 87.5681 23.3765 90.7671 23.0012 93.7495C22.7667 95.6385 22.4693 98.773 22.0808 100.498C21.9971 100.87 21.7156 100.745 21.6831 101.059C21.6474 101.405 21.8232 101.616 21.8217 101.78C21.8147 102.919 21.7393 105.429 21.4404 106.478C21.383 106.678 21.153 106.808 21.142 106.93C21.136 106.991 21.2688 107.141 21.2645 107.335C21.2363 108.621 21.1132 109.637 20.9717 110.763C20.924 111.145 20.8744 111.534 20.8254 111.952C20.4566 115.148 20.4157 118.869 20.0892 122.231C20.0179 122.967 19.6528 123.457 19.6515 123.562C19.6472 123.79 19.8662 123.939 19.8969 124.401C19.9931 125.933 19.6663 127.985 19.7127 129.442C19.7344 130.161 19.9437 131.151 19.9648 131.859C19.9814 132.423 19.8316 133.758 19.924 134.009C19.9794 134.162 20.1738 134.233 20.1893 134.416ZM17.1459 115.224C17.588 115.349 17.2548 114.264 16.9993 114.649C16.9423 114.735 17.0313 115.191 17.1459 115.224ZM21.2873 65.701C21.0993 65.6999 20.9114 65.6988 20.7235 65.6977C20.7945 65.8412 20.8653 65.9845 20.936 66.1276C21.0525 66.0563 21.1692 65.9848 21.2859 65.9133C21.2863 65.8426 21.2868 65.7718 21.2873 65.701Z" fill="black"/>
<path d="M31.3397 155.764C31.3607 155.685 31.5361 155.634 31.5891 155.549C31.8097 155.2 31.9535 155.086 32.1377 154.745C32.4546 154.245 32.6047 152.582 33.2275 152.52C33.2275 152.52 33.2275 152.52 33.2275 152.52C33.2275 152.52 33.2275 152.52 33.2275 152.52C33.2341 152.519 33.2408 152.519 33.2476 152.519C33.3759 152.518 33.5176 152.674 33.6659 152.696C33.814 152.717 34.7684 152.668 34.8431 152.938C34.9567 153.332 34.6568 154.244 34.632 154.441C34.6248 154.581 34.6999 154.771 34.6895 154.955C34.6518 155.55 34.5035 155.817 34.6306 156.435C34.4243 156.59 34.2099 156.733 33.9889 156.864C33.9627 157.149 33.6017 157.432 33.541 157.579C33.4918 157.703 33.5731 157.838 33.5141 157.967C33.4484 158.113 33.2103 158.248 33.0827 158.504C32.8728 158.918 33.1208 159.203 33.0001 159.473C32.873 159.756 32.4405 159.997 32.3031 160.382C32.305 160.448 32.3061 160.514 32.3078 160.58C32.4013 160.62 32.4955 160.658 32.5895 160.695C32.4998 160.881 32.3001 160.809 32.1817 160.943C32.0419 161.1 32.1056 161.319 32.0102 161.425C31.9313 161.512 31.7154 161.515 31.6177 161.631C31.4737 161.8 31.6615 161.936 31.6068 162.054C31.5903 162.103 31.0305 162.823 30.9905 162.855C30.7107 163.121 30.4853 162.878 30.2394 163.043C29.5543 163.501 29.0078 164.221 28.3985 164.73C28.1254 164.957 27.8057 165.121 27.4769 165.234C27.5388 164.143 26.214 164.003 27.2092 165.15C26.7912 165.131 26.7064 165.621 26.3543 165.712C26.1265 165.769 25.9018 165.639 25.6032 165.771C25.0757 166.003 24.6387 166.823 24.1668 165.791C23.5813 166.199 22.9305 165.935 22.9082 167.002C22.744 167.114 22.1858 166.618 21.9825 166.573C21.7837 166.549 20.3677 166.506 20.141 166.505C19.9112 166.518 19.5187 166.542 19.3314 166.655C19.2556 166.7 19.1929 166.851 19.1241 166.991C18.9829 167.282 18.8032 167.532 18.4885 166.642C17.994 166.775 17.8063 166.742 17.3487 166.586C17.2649 166.557 17.2616 166.354 17.213 166.353C17.1128 166.352 16.9358 166.5 16.7548 166.514C16.4575 166.536 16.318 166.094 16.304 166.755C16.0978 166.857 15.8894 166.956 15.6788 167.054C15.6215 166.921 15.5639 166.788 15.5085 166.654C15.3876 166.785 15.2649 166.915 15.1404 167.045C15.3817 166.097 14.5743 166.584 14.7348 167.164C14.3675 166.921 14.0188 166.668 13.6754 166.402C13.9431 165.313 12.8869 166.118 12.8076 166.729C12.7634 166.719 12.7193 166.709 12.6752 166.698C12.3639 166.323 11.945 166.478 11.5407 166.154C11.1385 165.826 11.2194 165.729 11.252 165.184C11.1395 165.18 11.0267 165.175 10.9124 165.168C9.85279 166.347 10.8578 164.028 9.53202 164.697C9.61889 163.727 8.75447 163.856 8.15476 163.851C8.08579 163.851 7.99535 164.01 7.89624 164.02C7.65256 164.042 7.33838 163.581 7.03888 164.09C6.97394 163.85 6.91733 163.611 6.86501 163.372C6.68338 163.381 6.50059 163.388 6.31665 163.392C6.20943 163.544 6.10223 163.696 5.99505 163.848C6.11396 163.162 5.59365 163.075 5.50626 162.81C5.48936 162.757 5.6439 162.551 5.57974 162.408C5.50519 162.239 5.22467 162.1 5.1317 161.906C4.88107 162.066 4.62729 162.222 4.37039 162.375C3.98741 162.231 4.43168 161.599 4.32996 161.411C4.30883 161.381 3.7986 160.904 3.76415 160.882C3.47066 160.728 3.00401 161.221 2.54741 160.373C2.46841 160.22 2.57796 159.981 2.50273 159.852C2.36741 159.633 1.51285 159.186 1.0594 159.332C1.41051 158.752 0.817427 158.029 0.886018 157.703C0.906712 157.607 1.2536 157.458 1.25016 157.205C1.24691 157.004 0.806731 156.605 0.795446 156.342C0.783512 156.067 1.0772 155.907 1.07524 155.789C1.07372 155.678 0.800819 155.626 0.775945 155.474C0.702533 154.994 1.07453 154.53 1.06348 154.171C1.06331 154.165 1.06306 154.16 1.06274 154.154C1.06274 154.154 1.06274 154.154 1.06274 154.154C1.03286 153.646 0.293565 153.168 5.15412e-06 152.654C0.0595492 152.537 0.234156 152.437 0.249908 152.315C0.440048 150.79 1.14738 149.193 1.99813 148.03C2.38548 147.439 4.14889 146.795 2.53526 146.112C2.43425 145.713 4.08379 144.89 4.31607 144.715C4.54378 144.51 4.52231 144.122 4.70657 143.956C5.26502 143.46 5.7995 143.313 6.38338 142.605C6.53601 142.421 6.54962 141.997 6.6717 141.927C6.81791 141.844 7.15236 142.038 7.34372 141.951C7.80076 141.736 8.58007 141.215 9.04123 141.075C9.12575 141.05 9.2795 141.301 9.42999 141.334C10.0105 141.465 10.4787 141.25 10.0413 140.43C10.8145 140.695 11.1744 140.073 11.7235 139.886C12.8725 139.469 15.0518 139.301 16.0438 138.885C16.6713 138.614 16.6344 138.229 17.6355 138.543C17.6501 138.547 17.6647 138.552 17.6793 138.557C17.8863 138.627 18.0936 138.718 18.3377 138.803C18.9595 139.021 19.4724 139.723 19.964 138.956C20.6195 139.226 21.1692 139.161 21.5752 139.904C21.6505 139.754 21.7269 139.604 21.8044 139.455C21.8852 139.465 21.9659 139.476 22.0465 139.487C22.0506 139.643 22.0548 139.798 22.0582 139.953C22.613 140.09 23.441 139.658 23.9264 139.806C24.7443 140.017 26.6875 141.016 27.2969 141.552C27.6278 141.824 27.7689 141.585 27.7269 142.216C27.824 142.222 27.9211 142.23 28.0194 142.239C28.1255 142.155 28.2323 142.072 28.3396 141.99C28.8058 142.257 29.2442 142.766 29.6558 143.06C30.4097 143.575 31.6618 144.292 32.144 145.16C32.2677 145.374 32.2955 145.742 32.4394 145.919C32.6458 146.177 32.9609 146.018 33.2104 146.378C33.6525 146.999 33.9604 148.416 34.2 149.045C34.2761 149.234 34.4066 149.285 34.4597 149.418C34.6791 149.976 34.7761 150.456 34.9967 151.003C34.816 151.668 34.4907 151.648 34.1971 151.865C33.9728 152.031 33.4745 152.454 33.2834 152.511C33.1487 152.553 32.9518 152.432 32.8044 152.49C32.5847 151.935 32.6527 151.711 32.7546 151.204C32.489 150.373 32.0847 149.599 31.5767 148.9C31.6267 148.778 31.6754 148.653 31.7231 148.526C31.7233 148.526 31.7235 148.526 31.7237 148.526C31.633 148.173 31.2945 148.226 31.1244 148.132C29.5606 147.177 27.019 145.117 25.1286 144.454C24.7363 144.289 23.3608 144.19 23.1412 143.888C23.0842 143.805 23.1214 143.549 23.0439 143.522C22.3002 143.539 21.5628 143.609 20.842 143.73C19.9155 143.393 18.9039 143.452 17.9372 143.633C17.4309 143.726 16.9372 143.85 16.4517 143.956C12.6028 144.787 9.19701 146.873 7.17338 149.469C6.7709 149.977 6.61554 150.768 6.25564 151.225C6.10602 151.414 5.54515 151.335 5.83893 151.772C5.69612 151.731 5.55324 151.69 5.41029 151.649C5.4968 151.988 5.7838 152.238 5.76378 152.537C5.73747 152.792 5.70783 153.446 5.66236 153.668C5.63559 153.783 5.35607 153.746 5.36128 153.86C5.36268 153.882 5.36945 153.907 5.38044 153.935C5.38044 153.935 5.38044 153.935 5.38044 153.935C5.46275 154.149 5.79838 154.445 5.83784 154.657C5.87262 154.874 5.6594 155.336 5.76338 155.503C6.12604 156.101 6.84413 156.489 7.1299 157.128C7.20693 157.305 7.08424 157.733 7.13513 157.78C7.23046 157.866 7.51917 157.671 7.60458 157.705C8.02787 157.871 8.20339 158.633 8.53679 158.936C9.59018 159.919 11.0647 160.589 12.4725 161.185C13.3615 161.581 14.9579 161.935 15.8544 162.294C16.0476 162.374 15.9595 162.705 16.1305 162.728C16.3202 162.752 16.4419 162.535 16.5309 162.527C17.0954 162.478 18.2454 162.352 18.8946 162.474C18.9609 162.487 19.022 162.503 19.0768 162.523C19.1898 162.564 19.2881 162.813 19.3554 162.81C19.3896 162.808 19.4528 162.635 19.5562 162.613C20.4732 162.416 21.1552 162.446 22.0719 162.345C23.8371 162.141 25.6807 161.254 27.3426 160.496C27.7064 160.332 28.1613 160.502 28.209 160.466C28.311 160.39 28.2263 160.138 28.3957 159.95C28.9599 159.341 29.9907 158.825 30.4374 158.173C30.6628 157.856 30.7746 157.301 30.9445 156.988C31.0881 156.742 31.5551 156.224 31.5153 156.063C31.4944 155.968 31.3177 155.85 31.3397 155.764ZM25.1978 165.666C25.0935 165.151 24.5727 165.807 24.9052 165.984C24.9804 166.024 25.2262 165.8 25.1978 165.666ZM1.82419 150.669C1.6331 150.62 1.44191 150.57 1.2506 150.521C1.29969 150.644 1.3507 150.765 1.40377 150.884C1.53328 150.859 1.66271 150.837 1.79202 150.816C1.80241 150.767 1.81315 150.718 1.82419 150.669Z" fill="black"/>
</svg>
