<svg width="24" height="25" viewBox="0 0 24 25" fill="none" xmlns="http://www.w3.org/2000/svg">
<path d="M11.5503 0.5C10.7237 0.5 8.26068 0.664224 6.53185 1.5303C4.24438 2.67623 2.91534 5.53292 1.45129 9.25514C-0.509852 14.2412 0.989621 19.5219 2.12814 21.2703C3.70352 23.6895 5.89282 23.9978 7.71115 24.4431C11.355 24.6391 16.6101 24.3672 18.4634 23.8264C19.3535 23.521 20.1411 23.1524 21.0708 22.6817" stroke="black" stroke-linecap="round"/>
<path d="M11.5987 1.1731C11.5046 1.7225 10.7617 4.43593 10.3938 10.4651C10.2375 13.0257 12.255 15.5552 14.0333 17.5449C15.1944 18.4646 16.5243 19.1435 21.1466 20.6811C22.1132 21.0033 22.353 21.1052 22.8543 21.2606" stroke="black" stroke-linecap="round"/>
</svg>
