<svg width="159" height="120" viewBox="0 0 159 120" fill="none" xmlns="http://www.w3.org/2000/svg">
<path d="M140.581 21.431C140.581 31.6482 113.649 39.931 80.4278 39.931C47.2062 39.931 20.2748 31.6482 20.2748 21.431C20.2748 11.2137 47.2062 2.93097 80.4278 2.93097C113.649 2.93097 140.581 11.2137 140.581 21.431Z" fill="white"/>
<path fill-rule="evenodd" clip-rule="evenodd" d="M80.4278 39.931C113.649 39.931 140.581 31.6482 140.581 21.431L155.766 93.3286C155.63 93.361 155.493 93.6049 155.263 94.014C154.308 95.7115 151.754 100.253 141.081 104.331C94.0642 122.293 44.3504 122.442 3.68327 93.2969L20.2748 21.431C20.2748 31.6482 47.2062 39.931 80.4278 39.931Z" fill="white"/>
<path d="M134.968 24.1896C135.012 24.0808 135.314 24.1467 135.418 24.0579C135.836 23.6991 136.1 23.6583 136.446 23.3488C136.71 23.1085 136.967 22.5614 137.23 22.1909C137.507 21.8241 137.865 21.4609 138.766 21.431C138.766 21.431 138.766 21.431 138.766 21.431C138.784 21.431 138.802 21.4312 138.82 21.4316C139.164 21.4338 139.535 21.6491 139.919 21.7107C140.301 21.7726 142.822 21.8541 142.904 22.4152C143.039 23.2579 141.842 24.7229 141.687 25.0175C141.595 25.2527 141.659 25.6209 141.527 25.9219C141.09 26.8859 140.642 27.1748 140.522 28.2503C140.041 28.2976 139.554 28.3317 139.091 28.3271C138.894 28.7345 138.113 28.8495 137.93 29.0299C137.788 29.1742 137.857 29.4505 137.694 29.5956C137.513 29.7582 137.036 29.7745 136.709 30.0604C136.178 30.5202 136.437 31.1506 136.107 31.4683C135.769 31.7929 135 31.8343 134.607 32.3295C134.579 32.4308 134.555 32.5297 134.53 32.6285C134.656 32.7496 134.78 32.872 134.911 32.9906C134.697 33.2012 134.424 32.9596 134.19 33.0802C133.914 33.2214 133.923 33.5839 133.732 33.6818C133.578 33.7605 133.236 33.6422 133.056 33.7507C132.782 33.9123 133.011 34.2191 132.886 34.3589C132.846 34.4143 131.74 35.1629 131.682 35.1873C131.192 35.4234 130.94 34.9697 130.523 35.1001C129.359 35.4647 128.366 36.2943 127.391 36.8123C126.955 37.0442 126.445 37.1896 125.955 37.2673C126.247 35.777 124.349 35.3292 125.589 37.0927C124.989 36.982 124.794 37.6299 124.267 37.6957C123.922 37.7388 123.631 37.5289 123.183 37.6704C122.397 37.922 121.706 38.9584 121.098 37.5991C120.24 38.1038 119.266 37.8002 119.254 39.1419C119.031 39.2801 118.223 38.6817 117.925 38.6444C117.633 38.6173 115.59 38.7224 115.257 38.769C114.927 38.8202 114.348 38.9194 114.104 39.0851C113.794 39.292 113.812 40.6628 112.895 39.2371C112.202 39.5005 111.937 39.504 111.249 39.4433C111.123 39.4323 111.069 39.2046 110.999 39.2168C110.855 39.2426 110.641 39.4563 110.386 39.5221C109.966 39.6301 109.639 39.1861 109.813 39.9189C109.548 40.0914 109.293 40.2616 109.035 40.4315C108.913 40.3043 108.792 40.177 108.672 40.0496C108.548 40.2297 108.423 40.4096 108.297 40.5895C108.305 39.4882 107.348 40.2863 107.786 40.8497C107.201 40.7122 106.622 40.5707 106.051 40.4249C105.954 39.1917 104.842 40.4501 105.035 41.1008C104.972 41.1083 104.909 41.1159 104.846 41.1233C104.248 40.872 103.788 41.2027 103.096 41.0661C102.404 40.9287 102.451 40.8008 102.182 40.2606C102.03 40.3114 101.877 40.362 101.723 40.4125C101.067 42.0549 100.931 39.3586 99.6537 40.6938C99.1041 39.7665 98.0522 40.386 97.349 40.746C97.2669 40.7879 97.2822 40.9774 97.1736 41.0458C96.9081 41.2112 96.1743 41.0275 96.2488 41.6363C95.987 41.4799 95.7209 41.3233 95.4639 41.1655C95.2732 41.2923 95.0817 41.4188 94.8894 41.545C94.9048 41.7358 94.9201 41.9266 94.9354 42.1174C94.4822 41.4975 93.8633 41.7926 93.5361 41.6581C93.4712 41.6308 93.4399 41.3683 93.24 41.3094C93.0065 41.2392 92.5841 41.3445 92.3124 41.2783C92.2258 41.5766 92.1385 41.8749 92.0507 42.1731C91.5756 42.3601 91.3611 41.5985 91.0739 41.5542C91.0227 41.5471 90.0882 41.6509 90.0377 41.6693C89.6282 41.8193 89.7789 42.4732 88.5792 42.383C88.3654 42.3663 88.1842 42.1457 87.9915 42.1439C87.6527 42.1411 86.6376 42.6913 86.5724 43.1698C86.1437 42.5866 85.0476 42.8588 84.7164 42.6925C84.6168 42.6416 84.5867 42.2621 84.2829 42.187C84.0369 42.126 83.4087 42.4409 83.1011 42.3938C82.7726 42.3426 82.6518 42.0243 82.5048 42.0033C82.3659 41.9838 82.2403 42.2428 82.0505 42.2429C81.4579 42.2386 80.9188 41.8253 80.4493 41.8177C80.4421 41.8176 80.435 41.8176 80.4278 41.8176C79.7578 41.8218 79.1628 42.5695 78.5974 42.8998C78.4569 42.849 78.3204 42.6838 78.1731 42.6807C76.3467 42.637 74.2936 42.4443 72.4641 42.2064C71.6212 42.101 69.5616 40.9565 70.0348 42.712C69.7174 43.0016 67.6189 42.1779 67.2057 42.1359C66.7972 42.0976 66.4517 42.3837 66.1308 42.3646C65.1691 42.3065 64.4932 42.0289 63.2936 42.1932C62.9836 42.2363 62.6249 42.5719 62.4457 42.5507C62.2319 42.5245 62.0276 42.148 61.747 42.0977C61.074 41.9812 59.8215 41.9655 59.1844 41.83C59.0672 41.8045 59.0611 41.4899 58.9037 41.3735C58.2908 40.9194 57.5625 40.8619 57.5681 41.866C56.8088 41.2023 55.9604 41.6105 55.1782 41.5335C53.5418 41.3784 50.5736 40.664 49.0816 40.8083C48.1491 40.9037 48.0597 41.3447 46.8133 40.7042C46.5357 40.5612 46.2744 40.3903 45.9361 40.2155C45.1358 39.8031 44.5627 38.8309 43.7174 39.657C42.8403 39.191 42.0594 39.188 41.5986 38.1944C41.4714 38.3726 41.3367 38.5488 41.2051 38.7256C41.0894 38.7012 40.974 38.6767 40.8589 38.6521C40.8722 38.4546 40.8858 38.2571 40.8997 38.0597C40.1046 37.7993 38.8923 38.2935 38.195 38.0839C37.0702 37.7642 34.1986 36.5023 33.2492 35.8529C32.739 35.515 32.5462 35.8858 32.5335 34.9636C32.3864 34.9706 32.2396 34.9772 32.0932 34.9834C31.9464 35.1271 31.7991 35.2703 31.6513 35.4132C30.9492 35.1421 30.1656 34.4927 29.5128 34.1982C28.2513 33.6412 26.2001 33.1683 25.1304 32.1023C24.8784 31.8477 24.7089 31.2802 24.4161 31.0884C23.9896 30.8062 23.5403 31.2794 22.9802 30.8809C22.0215 30.2224 20.881 28.1744 20.1614 27.2969C19.9323 27.0335 19.6447 27.0429 19.4819 26.8569C18.7921 26.0517 18.3787 25.2586 17.6662 24.3068C17.8903 22.9266 18.7603 22.9052 19.4841 22.4657C20.0326 22.1062 21.4019 21.4633 21.9384 21.4385C22.3099 21.4025 22.7897 21.5335 23.1985 21.4764C23.5495 21.9525 23.2257 22.1323 22.8783 22.8571C23.2732 23.789 24.0537 24.7366 25.0193 25.5835C24.9551 25.8274 24.8977 26.0754 24.847 26.3272C24.8467 26.3275 24.8463 26.3279 24.846 26.3283C25.0879 26.8758 25.6181 26.5551 25.9213 26.6241C28.6618 27.289 33.2146 30.4349 36.2891 31.582C36.9283 31.8446 39.1686 32.2327 39.5178 32.7049C39.6096 32.8303 39.5463 33.1708 39.6697 33.2222C40.8787 33.359 42.0531 33.4602 43.2467 33.5455C45.4891 34.6538 48.0344 34.7363 50.4655 35.0905C57.0401 36.0447 63.6258 36.4608 70.1481 36.8968C71.4232 36.9827 73.018 36.792 74.2624 36.9972C74.776 37.0822 74.9739 37.6419 75.6642 37.2466C75.6676 37.3958 75.6712 37.5451 75.6747 37.6943C76.2736 37.5285 76.6604 37.1973 77.3298 37.1737C77.8867 37.1555 79.366 37.1467 79.8641 37.2037C80.1219 37.2328 80.0252 37.5112 80.2662 37.5101C80.3142 37.5096 80.3684 37.5039 80.4278 37.4944C80.8804 37.4216 81.6235 37.1178 82.1222 37.1132C82.6351 37.1092 83.4932 37.4183 83.8933 37.3643C85.3177 37.1743 86.8361 36.655 88.3504 36.7201C88.7672 36.7393 89.316 37.0758 89.4452 37.0595C89.7008 37.0265 89.7605 36.6722 89.9299 36.6187C90.7949 36.3485 92.1503 36.6875 93.0145 36.6456C95.7803 36.5168 98.7147 36.0982 101.454 35.8417C103.194 35.6852 106.037 35.2306 107.678 35.2296C108.028 35.2312 107.999 35.6253 108.285 35.5787C108.602 35.5266 108.729 35.2419 108.878 35.1956C109.898 34.8799 112.104 34.2026 113.112 34.2623C113.303 34.2751 113.495 34.543 113.604 34.5192C113.661 34.5075 113.747 34.2797 113.918 34.222C115.422 33.7123 116.57 33.5698 118.059 33.2669C120.948 32.6754 124.097 31.3247 126.975 30.4049C127.594 30.2088 128.246 30.5791 128.332 30.5362C128.519 30.4442 128.484 30.0242 128.816 29.7702C129.931 28.9304 131.727 28.5019 132.705 27.6706C133.175 27.2763 133.607 26.3825 133.972 25.9723C134.304 25.6302 135.206 25.1357 135.187 24.8377C135.179 24.6625 134.918 24.3126 134.968 24.1896ZM122.609 37.4911C122.511 36.7993 121.681 37.6363 122.155 37.8876C122.263 37.9443 122.636 37.6709 122.609 37.4911ZM75.755 41.4253C75.7595 41.6234 75.764 41.8214 75.7686 42.0195C75.9022 41.9403 76.0358 41.8609 76.1693 41.7813C76.0978 41.6608 76.0265 41.5402 75.9553 41.4196C75.8885 41.4216 75.8217 41.4234 75.755 41.4253ZM140.508 12.9171C140.679 13.0149 140.707 13.4086 140.863 13.592C141.506 14.3658 141.623 14.7899 142.083 15.6146C142.428 16.2287 143.237 17.4937 143.454 18.8715C143.697 20.2479 143.293 21.4658 142.395 21.431C142.395 21.431 142.395 21.431 142.395 21.431C142.377 21.431 142.36 21.4306 142.341 21.4298C142 21.41 141.617 21.0967 141.225 21.0802C140.834 21.0643 138.336 21.2029 138.173 21.0179C137.985 20.762 138.323 19.7626 138.167 19.5423C138.083 19.4146 137.802 19.3696 137.672 19.2302C137.249 18.7867 137.151 18.3974 136.316 18.3852C136.411 18.0017 136.468 17.5902 136.514 17.1793C136.183 17.0648 136.076 16.3957 135.888 16.2717C135.745 16.1778 135.505 16.315 135.358 16.2138C135.196 16.1037 135.105 15.682 134.775 15.4969C134.239 15.1994 133.767 15.6988 133.412 15.5695C133.052 15.4409 132.748 14.8261 132.187 14.7801C132.095 14.8128 132.006 14.8478 131.918 14.8833C131.874 15.0505 131.826 15.216 131.783 15.3838C131.539 15.3352 131.618 14.9867 131.424 14.8742C131.196 14.7421 130.923 14.9664 130.765 14.8823C130.638 14.8142 130.567 14.4849 130.398 14.4183C130.143 14.3166 130.029 14.6812 129.867 14.6799C129.811 14.6784 128.71 14.3914 128.658 14.3756C128.23 14.1998 128.397 13.7111 128.062 13.5177C127.119 12.9804 125.934 12.9695 124.966 12.7887C124.53 12.7068 124.093 12.523 123.699 12.3037C124.786 11.2767 123.635 9.80819 123.536 11.9523C123.162 11.5187 122.654 11.9411 122.228 11.7094C121.947 11.5576 121.839 11.2247 121.419 11.107C120.674 10.8995 119.622 11.4522 119.805 9.97751C118.864 9.98793 118.191 9.26679 117.567 10.4494C117.324 10.4698 116.922 9.57487 116.684 9.41034C116.455 9.24931 114.65 8.48158 114.333 8.39845C114.024 8.31182 113.473 8.17526 113.194 8.23486C112.835 8.30586 112.35 9.58141 112.061 7.92083C111.345 7.9124 111.108 7.82246 110.506 7.52695C110.396 7.47352 110.424 7.24108 110.356 7.22871C110.217 7.20365 109.949 7.33143 109.694 7.30851C109.276 7.27072 109.12 6.74585 109.041 7.49445C108.744 7.57189 108.457 7.65192 108.169 7.73242C108.098 7.57393 108.027 7.41546 107.955 7.25702C107.786 7.38978 107.616 7.52279 107.447 7.65606C107.788 6.6085 106.663 7.08286 106.901 7.75123C106.407 7.44747 105.912 7.14672 105.421 6.84936C105.671 5.63558 104.279 6.54567 104.294 7.2269C104.234 7.21772 104.173 7.20858 104.113 7.19946C103.62 6.80212 103.107 7.00632 102.491 6.70806C101.872 6.41026 101.946 6.29881 101.815 5.71071C101.658 5.72489 101.5 5.73927 101.342 5.75385C100.357 7.21066 100.811 4.5435 99.3028 5.58779C98.9612 4.56748 97.8135 4.97232 97.0735 5.20536C96.9867 5.23227 96.9685 5.42148 96.852 5.47005C96.5681 5.58614 95.89 5.28407 95.8633 5.89737C95.6372 5.70069 95.4053 5.50407 95.181 5.30854C94.9768 5.40438 94.7726 5.50055 94.5684 5.59703C94.5551 5.78798 94.5418 5.97892 94.5284 6.16987C94.1839 5.48958 93.5422 5.69554 93.2447 5.51934C93.1854 5.48368 93.19 5.21927 93.0033 5.13473C92.7853 5.03455 92.3611 5.08577 92.1046 4.98757C91.9842 5.27325 91.8642 5.55903 91.7445 5.84493C91.2651 5.97554 91.1423 5.19576 90.8666 5.12057C90.8175 5.10689 89.8962 5.11488 89.8453 5.12947C89.4314 5.24082 89.5183 5.90084 88.3642 5.71096C88.1583 5.67701 87.9995 5.44299 87.812 5.42668C87.4814 5.39677 86.4578 5.87917 86.3681 6.35416C85.9891 5.74451 84.9099 5.96095 84.5965 5.78253C84.502 5.72751 84.4885 5.34678 84.1947 5.26011C83.9564 5.18928 83.3332 5.48343 83.0352 5.42878C82.7165 5.36913 82.6054 5.04864 82.4618 5.02453C82.3261 5.00214 82.1984 5.25876 82.0132 5.25577C81.4353 5.24211 80.9103 4.82544 80.4489 4.81775C80.4419 4.81762 80.4348 4.81758 80.4278 4.81763C79.769 4.82187 79.1927 5.57586 78.6513 5.91612C78.5142 5.86787 78.3782 5.70537 78.2349 5.70548C76.4585 5.70056 74.4564 5.61055 72.6594 5.5199C71.8376 5.47425 69.7128 4.54683 70.356 6.24514C70.0832 6.5597 67.9718 5.98754 67.5648 6.00796C67.1662 6.02467 66.8745 6.35639 66.565 6.38377C65.6377 6.4664 64.9446 6.29719 63.8314 6.66724C63.5439 6.76383 63.2651 7.1586 63.0926 7.17061C62.8864 7.18404 62.623 6.85242 62.3476 6.85689C61.6879 6.86964 60.505 7.11296 59.8785 7.12355C59.763 7.12465 59.6874 6.81934 59.5129 6.74141C58.8325 6.43647 58.1294 6.55743 58.3773 7.53013C57.5097 7.06792 56.8196 7.67913 56.0819 7.81379C54.5359 8.08675 51.6191 8.3222 50.3504 8.98749C49.559 9.40279 49.6444 9.83811 48.3299 9.70618C48.0367 9.67796 47.7464 9.61952 47.3873 9.59034C46.5437 9.52141 45.639 8.87686 45.2721 9.98119C44.3335 9.93222 43.6917 10.2776 42.8506 9.61318C42.8273 9.82944 42.7979 10.0474 42.7725 10.2644C42.6665 10.2967 42.5607 10.3292 42.4554 10.3617C42.3733 10.1821 42.291 10.0025 42.2086 9.82299C41.4234 9.97271 40.6983 11.0028 40.0563 11.1841C39.0106 11.4635 36.1999 12.0524 35.1552 12.1756C34.5927 12.2356 34.7062 12.6396 34.1023 11.9543C34.0072 12.0549 33.9133 12.1556 33.8205 12.2563C33.8175 12.459 33.8156 12.6615 33.8148 12.8637C33.1904 13.12 32.2723 13.1938 31.69 13.4626C30.549 13.9799 29.2545 15.2279 28.0806 15.5617C27.7956 15.636 27.2736 15.5109 27.0334 15.6777C26.6856 15.9209 26.9868 16.4905 26.5827 16.8037C25.9048 17.3075 24.2352 17.8317 23.8262 18.4786C23.6989 18.6664 23.8339 18.888 23.7743 19.0163C23.5275 19.5592 23.2994 19.9777 23.5129 20.4987C22.7937 20.7489 22.0336 20.5917 21.2056 20.6646C20.5773 20.6968 19.1327 21.2681 18.6113 21.4175C18.2385 21.503 17.7635 21.1803 17.3526 21.2935C17.083 19.7488 17.6674 19.0789 18.582 18.2822C19.3246 16.3921 20.5421 14.9501 21.8068 13.7572C22.0747 13.8153 22.3404 13.8782 22.604 13.9455C22.6043 13.9459 22.6046 13.9463 22.6049 13.9466C23.2645 13.7203 23.0948 13.1286 23.3005 12.8046C25.2356 9.60989 31.5601 7.8349 34.7972 6.94872C35.4973 6.7278 37.7008 5.72013 38.279 5.93781C38.4306 5.99188 38.5617 6.31258 38.6985 6.28849C39.8415 5.7441 40.9607 5.23332 42.11 4.73675C44.7109 4.64284 47.1313 3.68367 49.632 3.14883C56.3584 1.71287 63.1196 0.7329 69.8517 0.450754C71.1649 0.395765 72.7883 0.0685234 74.0822 0.194853C74.6167 0.247279 74.8489 0.793791 75.5359 0.364055C75.5469 0.512921 75.5578 0.661787 75.5688 0.810654C76.1721 0.616215 76.5558 0.268904 77.2434 0.223243C77.8148 0.184124 79.3362 0.148255 79.8485 0.205287C80.1136 0.233118 80.0154 0.511897 80.2622 0.51019C80.3114 0.509628 80.3669 0.503944 80.4278 0.494354C80.8908 0.421076 81.657 0.12326 82.1707 0.127983C82.6993 0.132073 83.5717 0.465053 83.983 0.426262C85.4478 0.28698 87.0453 -0.143336 88.601 0.0484183C89.029 0.10192 89.5612 0.487836 89.6946 0.484123C89.9593 0.475575 90.0553 0.129019 90.2351 0.092725C91.1539 -0.0909152 92.5088 0.405426 93.3959 0.482039C96.2402 0.724177 99.3021 0.846638 102.129 1.24321C103.921 1.48701 106.897 1.83528 108.518 2.36801C108.864 2.48108 108.708 2.84539 109.003 2.89353C109.33 2.94702 109.549 2.72043 109.71 2.72631C110.814 2.75763 113.223 2.93867 114.171 3.40887C114.351 3.49761 114.426 3.8208 114.54 3.84329C114.598 3.8555 114.773 3.68192 114.962 3.70023C116.612 3.86081 117.769 4.2514 119.298 4.70982C122.255 5.59378 125.845 6.2745 128.857 7.69136C129.505 7.99549 129.736 8.7411 129.832 8.77488C130.042 8.85092 130.332 8.53789 130.784 8.62858C132.309 8.93808 133.947 10.2399 135.32 10.8416C135.979 11.118 137.15 11.2769 137.816 11.6287C138.389 11.9191 139.379 13.0046 139.742 13.0515C139.96 13.0688 140.316 12.8082 140.508 12.9171ZM121.066 10.6542C121.35 10.0141 120.255 10.299 120.505 10.7573C120.561 10.8601 120.993 10.82 121.066 10.6542ZM75.8276 4.53357C75.8412 4.73122 75.8549 4.92888 75.8685 5.12653C75.9954 5.04119 76.1226 4.95598 76.2501 4.87089C76.1749 4.75348 76.0996 4.63612 76.0243 4.5188C75.9587 4.52369 75.8931 4.52862 75.8276 4.53357ZM139.813 37.122C139.689 36.7705 139.835 36.2069 139.759 35.7778C139.44 33.9798 139.476 33.281 139.235 31.6444C138.877 29.2176 137.042 22.1785 138.805 21.8059C138.806 21.8059 138.806 21.8059 138.806 21.8059C138.823 21.8022 138.841 21.7992 138.858 21.7969C139.2 21.7508 139.694 22.2781 140.093 22.2876C140.492 22.2969 142.931 21.7115 143.251 22.5413C143.695 23.7481 143.697 26.8683 143.865 27.5265C143.981 27.9765 144.322 28.4884 144.484 29.0607C145.007 30.9058 145.051 31.9198 146.013 33.4784C145.836 34.2205 145.659 34.9625 145.482 35.7046C145.816 36.5536 145.677 37.9766 145.813 38.5064C145.925 38.9411 146.232 39.1449 146.34 39.5996C146.463 40.1094 146.357 40.9545 146.595 41.8787C146.984 43.394 147.7 43.527 147.977 44.4269C148.265 45.3602 148.219 46.9155 148.708 48.0807C148.812 48.2176 148.917 48.3546 149.021 48.4916C149.162 48.3479 149.303 48.2041 149.444 48.0604C149.649 48.6559 149.369 48.9898 149.482 49.5529C149.614 50.2156 150.004 50.4857 150.096 50.9309C150.172 51.2957 150.021 51.8437 150.136 52.3129C150.304 52.9972 150.641 52.7687 150.788 53.1249C150.846 53.2671 151.627 55.959 151.663 56.1126C151.925 57.283 151.442 57.4917 151.595 58.4367C152.023 61.0573 152.994 63.6351 153.655 66.0031C153.95 67.0604 154.157 68.185 154.302 69.2708C152.655 67.8601 152.437 71.7979 154.163 69.9779C154.127 71.2277 154.85 71.9557 154.996 73.1025C155.09 73.8443 154.917 74.4081 155.144 75.4477C155.549 77.2919 156.772 79.1444 155.445 79.9798C156.156 82.0948 156.031 84.0833 157.467 84.5965C157.663 85.1394 157.208 86.7323 157.238 87.3812C157.263 87.9117 157.729 91.4386 157.944 92.8686L158.347 95.0563L156.284 95.4939C157.098 95.2454 157.172 94.9897 157.274 94.9134C157.353 94.8205 157.363 94.7963 157.37 94.7841C157.377 94.7652 157.35 94.8013 157.334 94.8262C157.297 94.883 157.24 94.978 157.175 95.0893C156.783 95.7886 156.085 96.845 155.768 97.3931C155.332 98.1734 155.825 99.6908 153.549 99.663C152.255 100.989 151.681 101.343 150.201 102.121C149.924 102.263 149.778 102.078 149.63 102.172C149.326 102.365 148.895 102.833 148.355 103.165C147.456 103.715 146.698 103.54 147.149 104.156C146.593 104.586 146.019 105.007 145.452 105.407C145.173 105.377 144.882 105.349 144.611 105.311C144.348 105.6 144.057 105.898 143.789 106.182C143.768 105.022 141.642 106.568 142.639 106.841C142.455 106.879 142.27 106.918 142.083 106.956C140.979 107.17 139.876 107.375 138.775 107.57C138.521 106.352 136.087 108.384 136.54 108.932C136.401 108.98 136.262 109.028 136.123 109.075C134.799 109.188 133.775 109.821 132.213 110.1C130.654 110.376 130.757 110.212 130.133 109.815C129.793 109.957 129.453 110.098 129.113 110.237C127.728 112.292 127.272 109.626 124.447 111.684C123.169 111.033 120.809 112.212 119.214 112.92C119.028 113.002 119.071 113.188 118.826 113.31C118.224 113.609 116.546 113.764 116.743 114.346C116.139 114.308 115.537 114.266 114.936 114.222C114.5 114.436 114.062 114.649 113.624 114.86C113.668 115.046 113.712 115.233 113.755 115.419C112.682 114.99 111.273 115.542 110.519 115.535C110.37 115.533 110.286 115.281 109.824 115.299C109.284 115.32 108.324 115.586 107.685 115.62C107.496 115.953 107.306 116.285 107.115 116.617C106.022 116.977 105.493 116.283 104.825 116.336C104.705 116.349 102.549 116.754 102.435 116.785C101.5 117.056 101.871 117.682 99.0647 117.924C98.5654 117.965 98.1357 117.791 97.6874 117.838C96.9013 117.925 94.5607 118.706 94.4197 119.196C93.3929 118.709 90.8294 119.183 90.0509 119.065C89.8167 119.029 89.7357 118.655 89.025 118.625C88.4507 118.601 86.9938 118.998 86.2617 118.984C85.4858 118.969 85.1959 118.662 84.8499 118.654C84.5232 118.648 84.233 118.918 83.788 118.933C82.3966 118.975 81.1259 118.588 80.0317 118.593C78.4517 118.6 77.041 119.356 75.6975 119.672C75.3665 119.617 75.0444 119.446 74.6975 119.436C70.3962 119.314 65.56 118.831 61.3033 118.146C59.3121 117.858 54.5846 116.048 55.6125 117.961C54.8645 118.171 49.9987 116.546 49.0714 116.306C48.1326 116.092 47.3185 116.223 46.5783 116.052C44.3451 115.53 42.8446 114.915 40.0907 114.396C39.379 114.261 38.5314 114.387 38.1237 114.256C37.6326 114.098 37.2109 113.592 36.5844 113.365C35.0841 112.833 32.2575 111.961 30.8516 111.354C30.5952 111.243 30.6141 110.917 30.2802 110.684C28.9795 109.776 27.3753 109.143 27.2755 110.18C25.6511 108.895 23.7816 108.631 22.086 107.874C18.5009 106.322 12.3857 102.722 9.28918 101.254C7.33882 100.35 7.11972 100.76 4.69632 98.6862C4.16312 98.2246 3.65178 97.7363 3.01166 97.1658C2.57317 96.7746 2.17711 96.3472 1.79209 95.9358L-4.76837e-07 94.5801L0.51993 92.5666C1.0714 91.3626 1.54271 90.2436 1.09238 89.0664C1.82801 87.0264 2.03559 85.3143 3.22348 83.9489C3.06713 83.7195 2.91079 83.4901 2.75444 83.2608C2.80891 83.0024 2.86338 82.744 2.91785 82.4857C3.12589 82.4492 3.33392 82.4127 3.54196 82.3762C4.01841 80.5453 3.77921 78.0277 4.14499 76.4692C4.75752 73.8561 6.61518 67.1903 7.44342 64.7695C7.88316 63.4844 7.49362 63.3198 8.50199 62.7587C8.51193 62.4509 8.52186 62.143 8.5318 61.8352C8.39165 61.6087 8.2515 61.3823 8.11135 61.1558C8.49399 59.4651 9.24027 57.5272 9.60885 55.9175C10.2799 52.9841 10.7936 48.4652 11.8036 45.5971C12.0573 44.878 12.6471 44.0421 12.8098 43.3182C13.0469 42.2646 12.4807 41.8646 12.7773 40.5266C13.2896 38.2208 15.0054 34.1027 15.452 31.9147C15.5851 31.2649 15.422 30.9097 15.5002 30.4579C15.8254 28.5627 16.1989 27.0312 16.2535 25.1546C17.2973 23.3669 18.0322 23.7118 18.9504 23.2951C19.6438 22.9788 21.3289 21.9069 21.8902 21.829C22.2845 21.7744 22.6315 22.3984 23.0751 22.2967C22.861 24.6777 22.2865 25.5662 21.2928 27.3103C20.5163 30.7757 19.7398 34.241 18.9633 37.7064C18.6729 37.9709 18.3824 38.2355 18.092 38.5C18.0915 38.4999 18.0911 38.4998 18.0906 38.4997C17.5325 39.7705 17.9633 40.4631 17.9251 41.2092C17.5599 48.3515 13.4884 61.6352 11.6072 69.1567C11.2022 70.7776 10.2733 76.14 9.66178 77.1752C9.50293 77.4431 9.1486 77.446 9.06297 77.7502C8.62811 80.5448 8.19325 83.3393 7.75839 86.1338C6.93871 88.6161 6.30197 91.1812 5.7375 93.7712L4.91137 91.5833C7.54951 93.4249 10.3118 95.0625 13.0334 96.6589C26.4265 104.535 41.1153 109.575 56.11 112.151C59.0113 112.661 62.7432 112.88 65.5963 113.304C66.7858 113.48 67.2446 114.076 68.8548 113.775C68.8614 113.925 68.8679 114.075 68.8745 114.225C70.2719 114.137 71.1683 113.847 72.7163 113.875C74.0226 113.91 77.4661 113.947 78.6227 113.99C79.2209 114.016 78.9992 114.296 79.5573 114.29C80.513 114.28 82.5497 113.852 83.8618 113.798C85.0499 113.755 87.083 113.965 87.9969 113.855C91.2902 113.473 94.8257 112.645 98.3243 112.305C99.2917 112.214 100.588 112.39 100.887 112.334C101.473 112.225 101.595 111.851 101.982 111.745C103.952 111.212 107.136 111.066 109.101 110.683C115.49 109.465 122.126 107.58 128.325 105.694C131.554 104.727 136.444 102.999 140.089 101.736C140.864 101.471 141.557 101.226 142.172 101.011C142.912 100.75 142.877 101.186 143.48 100.909C144.144 100.599 144.374 100.192 144.671 100.018C146.781 98.8979 150.653 95.8149 151.865 94.3914C152.127 94.1377 152.528 94.086 152.652 93.8985C152.715 93.8029 152.68 93.4825 152.845 93.1589C152.908 93.0353 152.974 92.9029 153.043 92.7656C153.111 92.6324 153.178 92.4964 153.298 92.2899C153.362 92.1833 153.431 92.0631 153.588 91.8586C153.793 91.6821 153.849 91.2468 155.166 90.8196L153.242 93.8617C152.5 90.8431 152.079 88.3682 151.471 85.1911C150.142 78.2525 148.077 70.324 146.746 63.0212C146.456 61.4301 146.81 60.2222 146.757 60.001C146.642 59.5154 146.184 59.2858 145.879 58.3176C144.866 55.0979 144.349 50.5828 143.493 47.498C143.07 45.9739 142.124 43.9565 141.692 42.4598C141.348 41.2644 140.938 38.3561 140.606 37.8642C140.404 37.5647 139.948 37.5028 139.813 37.122ZM155.051 76.6259C154.327 76.5528 155.371 78.7067 155.554 77.7772C155.596 77.5678 155.239 76.6446 155.051 76.6259ZM69.0247 117.971C69.0335 118.17 69.0423 118.369 69.0512 118.567C69.3657 118.505 69.6802 118.442 69.9934 118.377C69.827 118.248 69.6603 118.119 69.4945 117.99C69.3379 117.984 69.1813 117.977 69.0247 117.971Z" fill="black"/>
</svg>
